<?xml version="1.0" encoding="UTF-8" standalone="no"?>
<!-- Created with Inkscape (http://www.inkscape.org/) -->

<svg
   width="1920"
   height="1080"
   viewBox="0 0 1920 1080"
   version="1.1"
   id="svg1"
   inkscape:version="1.4.2 (f4327f4, 2025-05-13)"
   sodipodi:docname="academicteam.svg"
   xmlns:inkscape="http://www.inkscape.org/namespaces/inkscape"
   xmlns:sodipodi="http://sodipodi.sourceforge.net/DTD/sodipodi-0.dtd"
   xmlns="http://www.w3.org/2000/svg"
   xmlns:svg="http://www.w3.org/2000/svg">
  <sodipodi:namedview
     id="namedview1"
     pagecolor="#ffffff"
     bordercolor="#000000"
     borderopacity="0.25"
     inkscape:showpageshadow="2"
     inkscape:pageopacity="0.0"
     inkscape:pagecheckerboard="0"
     inkscape:deskcolor="#d1d1d1"
     inkscape:document-units="px"
     showguides="true"
     inkscape:zoom="0.68055556"
     inkscape:cx="891.18367"
     inkscape:cy="575.26531"
     inkscape:window-width="1920"
     inkscape:window-height="974"
     inkscape:window-x="-11"
     inkscape:window-y="-11"
     inkscape:window-maximized="1"
     inkscape:current-layer="layer1" />
  <defs
     id="defs1">
    <inkscape:path-effect
       effect="perspective-envelope"
       up_left_point="710.13788,243.9436"
       up_right_point="1016.203,243.9436"
       down_left_point="686.56396,288.06044"
       down_right_point="1039.7769,288.06044"
       id="path-effect89"
       is_visible="true"
       lpeversion="1"
       deform_type="perspective"
       horizontal_mirror="false"
       vertical_mirror="true"
       overflow_perspective="false" />
    <inkscape:path-effect
       effect="perspective-envelope"
       up_left_point="567.32812,238.36318"
       up_right_point="1152.2109,238.36318"
       down_left_point="553.99034,291.04567"
       down_right_point="1165.5487,291.04567"
       id="path-effect88"
       is_visible="true"
       lpeversion="1"
       deform_type="perspective"
       horizontal_mirror="false"
       vertical_mirror="true"
       overflow_perspective="false" />
    <rect
       x="357.42083"
       y="209.88084"
       width="1007.8436"
       height="415.60562"
       id="rect83" />
    <rect
       x="434.30787"
       y="423.91773"
       width="945.50278"
       height="230.66112"
       id="rect3" />
    <rect
       x="288.8459"
       y="122.60366"
       width="619.25237"
       height="207.80281"
       id="rect1" />
    <rect
       x="357.42083"
       y="209.88084"
       width="1007.8436"
       height="415.60562"
       id="rect86" />
  </defs>
  <g
     inkscape:label="Layer 1"
     inkscape:groupmode="layer"
     id="layer1">
    <path
       id="path98"
       style="opacity:1;fill:none;stroke:#000000;stroke-width:10.7241;stroke-linecap:round;stroke-dasharray:none"
       d="m 726.9438,604.95273 a 240.67849,240.67849 0 0 1 -7.6223,-60.09117 240.67849,240.67849 0 0 1 240.67849,-240.67849 240.67849,240.67849 0 0 1 240.67851,240.67849 v 0 a 240.67849,240.67849 0 0 1 -7.6223,60.09116" />
    <text
       xml:space="preserve"
       id="text1"
       style="fill:#000000;text-align:start;writing-mode:lr-tb;text-orientation:auto;direction:ltr;opacity:1;white-space:pre;shape-inside:url(#rect1);font-size:50px" />
    <path
       style="font-size:70px;font-family:'Copperplate Gothic Bold';-inkscape-font-specification:'Copperplate Gothic Bold, Normal';text-align:center;text-anchor:middle;white-space:pre;opacity:1;stroke-width:0;stroke-linecap:round"
       d="m 893.89547,444.54146 1.38655,5.09451 -0.58988,0.33216 c -0.21288,-0.31988 -0.42614,-0.47938 -0.64038,-0.47938 -0.21423,0 -0.92924,0.29469 -2.15128,0.88711 -2.55689,1.23479 -4.65427,2.08046 -6.27083,2.5255 -1.60711,0.43449 -3.40039,0.65253 -5.37389,0.65253 -3.93484,0 -6.68257,-0.97699 -8.21759,-2.89893 -0.89649,-1.09876 -1.33855,-2.44379 -1.33473,-4.02331 -0.007,-1.77153 0.54562,-3.68254 1.63559,-5.72232 1.44283,-2.70017 3.4537,-4.97533 6.02153,-6.85758 3.74758,-2.74623 7.9003,-4.08367 12.55551,-4.08367 1.71007,0 3.10672,0.1641 4.19345,0.49336 1.09139,0.33067 2.365,0.98649 3.83124,1.97576 0.70876,0.46936 1.16172,0.70509 1.35567,0.70509 0.19395,0 0.49125,-0.13049 0.89091,-0.39083 l 0.3179,0.27037 -4.80675,4.40937 -0.33487,-0.28583 c 0.0891,-0.16891 0.15664,-0.31115 0.20255,-0.42686 0.12073,-0.30426 0.0955,-0.5865 -0.0751,-0.84693 -0.16579,-0.26996 -0.5232,-0.59063 -1.07073,-0.96141 -1.49914,-1.02088 -3.30983,-1.52639 -5.44656,-1.52639 -2.52521,0 -4.81973,0.59177 -6.90714,1.78885 -2.49868,1.42508 -4.35784,3.32618 -5.57012,5.7367 -1.24899,2.4835 -1.33549,4.55082 -0.21505,6.16808 0.96152,1.40593 2.8384,2.11764 5.61869,2.11764 2.35256,0 4.83649,-0.60866 7.42427,-1.81318 0.92603,-0.42951 1.59315,-0.7917 2.00382,-1.08743 0.41392,-0.30647 0.68782,-0.62942 0.82243,-0.96865 0.0509,-0.12831 0.0994,-0.27971 0.14541,-0.45406 z m 23.09183,-0.31169 h -10.81809 l -2.2288,6.92983 c -0.12488,0.38826 -0.13748,0.69003 -0.0372,0.90443 0.10455,0.20226 0.35258,0.37327 0.7444,0.51287 l -0.16251,0.51588 h -7.21729 l 0.1904,-0.53493 c 0.46435,-0.11421 0.81889,-0.27891 1.06362,-0.49382 0.2562,-0.2144 0.4521,-0.51617 0.58774,-0.90443 l 5.46036,-15.6305 c 0.11193,-0.32039 0.12017,-0.56239 0.0252,-0.72675 -0.0948,-0.164 -0.31789,-0.30211 -0.66915,-0.41448 l 0.15219,-0.42755 h 6.43377 l -0.13468,0.42755 c -0.42341,0.10214 -0.7392,0.24024 -0.94726,0.41448 -0.20524,0.16436 -0.35938,0.40636 -0.46242,0.72675 l -1.69305,5.26407 h 10.59596 l 1.3528,-5.26407 c 0.0823,-0.32039 0.0682,-0.56239 -0.0419,-0.72675 -0.099,-0.164 -0.33492,-0.30211 -0.70743,-0.41448 l 0.1127,-0.42755 h 6.43377 l -0.0952,0.42755 c -0.41398,0.10214 -0.717,0.24024 -0.90898,0.41448 -0.19006,0.16436 -0.32184,0.40636 -0.3953,0.72675 l -3.58367,15.6305 c -0.089,0.38826 -0.0738,0.69003 0.0463,0.90443 0.12323,0.20226 0.38706,0.37327 0.79177,0.51287 l -0.11487,0.51588 h -7.2173 l 0.14101,-0.53493 c 0.4538,-0.11421 0.79313,-0.27891 1.01801,-0.49382 0.23641,-0.2144 0.40444,-0.51617 0.50422,-0.90443 z m 21.51929,-10.63407 c 2.88524,0 5.21826,0.69017 7.02278,2.08889 2.20092,1.72011 3.20983,4.17979 2.98417,7.44627 -0.22018,3.1872 -1.66567,5.82021 -4.37703,7.8415 -2.28954,1.71256 -5.07761,2.58153 -8.33024,2.58153 -3.25262,0 -5.80272,-0.86897 -7.62328,-2.58153 -2.1697,-2.02129 -2.88893,-4.70744 -2.21544,-7.99487 0.65455,-3.19504 2.33231,-5.60459 5.00907,-7.2929 2.1715,-1.36814 4.67245,-2.05856 7.52997,-2.08889 z m -0.43331,3.28063 c -1.90859,0 -3.55723,0.5867 -4.96133,1.77308 -1.32186,1.12758 -2.14298,2.56491 -2.45441,4.32808 -0.31614,1.78981 0.005,3.31104 0.97928,4.54802 1.06795,1.3525 2.6442,2.03681 4.716,2.03681 2.0599,0 3.81766,-0.68431 5.25613,-2.03681 1.31191,-1.22517 2.04708,-2.71762 2.21692,-4.46285 0.18042,-1.8539 -0.24418,-3.31841 -1.26044,-4.41325 -1.09261,-1.16516 -2.58619,-1.75201 -4.49215,-1.77308 z m 32.38767,8.85318 3.30424,4.44225 -0.38792,0.31563 c -0.30317,-0.21055 -0.53812,-0.31563 -0.70541,-0.31563 -0.20313,0 -0.65927,0.22888 -1.37124,0.68845 -1.58789,1.00202 -3.01471,1.70399 -4.27092,2.09853 -1.26187,0.39633 -2.72941,0.59515 -4.39836,0.59515 -3.3379,0 -6.04436,-0.83717 -8.09017,-2.48796 -1.14155,-0.93123 -2.02325,-2.0844 -2.64668,-3.45052 -0.65484,-1.45077 -0.93329,-2.99873 -0.84498,-4.63792 0.11889,-2.20642 0.85798,-4.10706 2.19927,-5.72109 2.05263,-2.45917 5.05466,-3.6607 9.05293,-3.6607 1.48044,0 2.79848,0.15678 3.9576,0.4713 1.17463,0.31577 2.52576,0.88428 4.06179,1.71102 0.70598,0.38531 1.15373,0.57866 1.34067,0.57866 0.15395,0 0.35618,-0.0889 0.60627,-0.26639 l 0.40115,0.28208 -2.54373,3.94135 -0.3876,-0.26334 c 0.003,-0.13134 0.01,-0.21332 0.0191,-0.24609 0.005,-0.0982 0.007,-0.16911 0.005,-0.21269 -0.0319,-0.532 -0.81987,-1.1304 -2.3545,-1.79367 -1.44356,-0.62615 -2.87816,-0.9374 -4.31222,-0.9374 -2.00769,0 -3.66417,0.50706 -4.98194,1.53088 -1.52797,1.16751 -2.32417,2.68968 -2.37282,4.58608 -0.05,1.95232 0.69786,3.58306 2.2623,4.87212 1.39886,1.1502 3.18307,1.73112 5.33846,1.73112 1.69096,0 3.35908,-0.43453 4.99198,-1.29707 1.26219,-0.67424 1.87454,-1.25987 1.84462,-1.75864 -10e-4,-0.0237 -0.0289,-0.18926 -0.0822,-0.49586 z m 15.21064,-8.61584 2.25002,14.04593 c 0.0622,0.38826 0.19501,0.69003 0.3986,0.90443 0.20195,0.20226 0.53245,0.37327 0.99149,0.51287 l 0.086,0.51588 h -7.2173 l -0.0673,-0.53493 c 0.40933,-0.11421 0.6845,-0.27891 0.82569,-0.49382 0.15289,-0.2144 0.20341,-0.51617 0.15197,-0.90443 l -1.86075,-14.04593 h -5.4691 c -0.35355,0 -0.61676,0.0793 -0.78987,0.23802 -0.16336,0.14848 -0.28307,0.41429 -0.35919,0.79859 h -0.45037 l -0.45292,-5.15854 h 0.45211 c 0.129,0.35175 0.28711,0.60396 0.47416,0.75569 0.19728,0.14186 0.46936,0.21289 0.81595,0.21289 h 15.07713 c 0.3466,0 0.59249,-0.071 0.73741,-0.21289 0.15552,-0.14162 0.25061,-0.39387 0.28538,-0.75569 h 0.43599 l 1.05678,5.15854 h -0.45034 c -0.18859,-0.3843 -0.39165,-0.65011 -0.60952,-0.79859 -0.2085,-0.15876 -0.48936,-0.23802 -0.84297,-0.23802 z m 24.24121,10.77203 h -9.1088 l -0.5071,2.23048 c -0.1249,0.545 -0.1517,0.97473 -0.08,1.28745 0.1391,0.6036 0.6153,0.9893 1.4289,1.15422 l 0.1268,0.53493 h -7.50893 l -0.10399,-0.53493 c 0.44529,-0.0762 0.75529,-0.22193 0.93,-0.43699 0.18637,-0.21452 0.36632,-0.63574 0.53939,-1.26065 l 3.85032,-14.20475 c 0.13103,-0.49213 0.15087,-0.91898 0.0602,-1.28155 -0.10543,-0.42263 -0.49185,-0.75092 -1.15827,-0.98604 l -0.10412,-0.42755 h 7.0674 l 0.1234,0.42755 c -0.5333,0.22489 -0.7337,0.57369 -0.5994,1.04808 0.097,0.34207 0.3535,0.76392 0.7716,1.26679 l 11.5372,13.74746 c 0.6915,0.82194 1.2023,1.36166 1.5281,1.61383 0.3224,0.24023 0.7492,0.41133 1.2803,0.51287 l 0.1761,0.51588 h -8.3291 l -0.1517,-0.51588 c 0.7458,-0.1396 1.0231,-0.5255 0.8339,-1.15447 -0.1167,-0.3877 -0.4105,-0.86681 -0.8795,-1.4358 z m -2.2228,-2.78725 -4.7829,-6.04426 -1.4285,6.04426 z m 22.3153,-5.75157 0.1674,10.5658 c 0.01,0.55612 0.088,1.01605 0.2342,1.37824 0.284,0.70369 0.857,1.13371 1.7184,1.28598 l 0.2118,0.51588 h -7.6001 l -0.1895,-0.51588 c 0.6562,-0.1903 0.8587,-0.62014 0.61,-1.28598 -0.126,-0.33726 -0.4056,-0.79732 -0.837,-1.37824 l -9.749,-13.05215 c -0.6872,-0.92133 -1.2095,-1.52795 -1.5719,-1.82695 -0.3536,-0.30814 -0.8057,-0.52312 -1.3568,-0.64571 l -0.1401,-0.42755 h 6.9212 l 0.159,0.42755 c -0.5982,0.20442 -0.8173,0.52744 -0.6554,0.97054 0.079,0.2173 0.3258,0.59121 0.741,1.12393 l 6.8817,8.77343 0.061,-8.71051 c 0.01,-0.49147 -0.044,-0.86586 -0.1506,-1.12483 -0.2128,-0.51539 -0.7188,-0.85884 -1.5178,-1.03256 l -0.1735,-0.42755 h 8.091 l 0.1955,0.42755 c -0.6087,0.21465 -0.8004,0.57369 -0.5726,1.07912 0.1027,0.22797 0.3484,0.56596 0.7382,1.01535 l 7.5222,8.77343 -0.8258,-8.85199 c -0.039,-0.36562 -0.1243,-0.68287 -0.2579,-0.95231 -0.1434,-0.28915 -0.3295,-0.51047 -0.5583,-0.6645 -0.2283,-0.15374 -0.571,-0.28673 -1.0282,-0.3991 l -0.2091,-0.42755 h 7.0836 l 0.2285,0.42755 c -0.4345,0.18395 -0.7014,0.41962 -0.8002,0.70747 -0.094,0.27857 -0.093,0.86469 0.01,1.76519 l 1.4327,13.05215 c 0.057,0.50654 0.1795,0.95375 0.3684,1.3407 0.3559,0.72861 0.9837,1.17125 1.8822,1.32352 l 0.2556,0.51588 h -7.9098 l -0.2325,-0.51588 c 0.6714,-0.22831 0.8478,-0.68947 0.5322,-1.3798 -0.08,-0.17485 -0.408,-0.60424 -0.9809,-1.28442 z"
       id="text83"
       aria-label="Choctaw" />
    <path
       style="opacity:1;fill:#000000;stroke:#000000;stroke-width:4.36638;stroke-linecap:round;stroke-dasharray:none"
       d="M 792.89453,463.26369 H 1123.7145"
       id="path86" />
    <path
       style="font-size:70px;font-family:'Copperplate Gothic Bold';-inkscape-font-specification:'Copperplate Gothic Bold, Normal';text-align:center;text-anchor:middle;white-space:pre;opacity:1;stroke-width:0;stroke-linecap:round"
       d="m 770.13214,498.59656 h -15.82232 l -3.55907,5.02135 c -0.49475,0.70204 -0.79131,1.25569 -0.88916,1.66039 -0.18744,0.77527 0.25765,1.31348 1.3361,1.61375 l -0.20358,0.84896 h -11.65728 l 0.21493,-0.84896 c 0.72275,-0.14133 1.30881,-0.38855 1.75808,-0.74148 0.4489,-0.35264 1.03267,-1.03947 1.75031,-2.05892 l 19.18655,-26.77213 c 0.59149,-0.82368 0.94459,-1.48145 1.06007,-1.97411 0.17679,-0.75428 -0.17593,-1.29457 -1.05738,-1.62166 l 0.1851,-0.78402 h 11.98417 l -0.17387,0.78402 c -1.03682,0.27801 -1.63233,0.76091 -1.78622,1.44938 -0.10641,0.47602 -0.0702,1.01837 0.10889,1.62729 l 7.36832,26.81749 c 0.32125,1.17655 0.65111,1.98618 0.98919,2.42684 0.34204,0.42344 0.85935,0.70597 1.55184,0.8473 l -0.17308,0.84896 h -12.9468 l 0.18569,-0.84896 c 1.17592,-0.19432 1.86124,-0.74148 2.05606,-1.64016 0.0801,-0.36949 0.027,-0.91438 -0.15915,-1.63398 z m -1.11798,-4.83502 -2.78502,-12.31598 -8.50765,12.31598 z m 43.6908,3.45914 3.23929,6.42353 -0.665,0.44744 c -0.36103,-0.29835 -0.66124,-0.44744 -0.90082,-0.44744 -0.29091,0 -1.02172,0.32457 -2.19372,0.97444 -2.59062,1.40846 -4.83871,2.38827 -6.73977,2.9365 -1.90344,0.54894 -4.03468,0.82367 -6.39194,0.82367 -4.7145,0 -8.3347,-1.15977 -10.85056,-3.47005 -1.41649,-1.31717 -2.42015,-2.9624 -3.01218,-4.93193 -0.62564,-2.11636 -0.68563,-4.40316 -0.18444,-6.85758 0.6858,-3.35842 2.24358,-6.30291 4.66647,-8.84177 3.77173,-3.93782 8.71818,-5.89305 14.86555,-5.89305 2.27619,0 4.24885,0.25632 5.91951,0.76941 1.68933,0.51372 3.5518,1.43502 5.59066,2.76655 0.93012,0.61726 1.53766,0.92622 1.8216,0.92622 0.23384,0 0.57493,-0.14199 1.02305,-0.42581 l 0.50107,0.45087 -5.29223,6.18504 -0.4854,-0.40668 c 0.0517,-0.20319 0.0903,-0.33014 0.11586,-0.3809 0.043,-0.15228 0.0702,-0.26221 0.0818,-0.32985 0.14206,-0.82772 -0.82923,-1.7633 -2.90982,-2.80601 -1.96736,-0.98988 -4.03601,-1.48396 -6.20941,-1.48396 -3.04275,0 -5.70315,0.80421 -7.98769,2.41724 -2.61834,1.822 -4.21298,4.17002 -4.77834,7.0527 -0.57256,2.91942 0.10455,5.32131 2.04059,7.19682 1.71424,1.6565 4.12104,2.48714 7.21546,2.48714 2.42767,0 4.9571,-0.62095 7.58265,-1.86016 2.04492,-0.97492 3.12823,-1.82616 3.25322,-2.55447 0.006,-0.0347 0.0221,-0.27714 0.0483,-0.72707 z m 29.66246,3.14761 h -13.16974 l -1.97256,3.19701 c -0.47785,0.77221 -0.75089,1.37866 -0.81851,1.81864 -0.13003,0.84601 0.3368,1.38444 1.4011,1.61414 l -0.11277,0.74293 h -10.62567 l 0.12183,-0.74293 c 0.67011,-0.10603 1.18412,-0.30918 1.54195,-0.60932 0.37475,-0.29992 0.84766,-0.89035 1.41806,-1.77011 l 13.682,-21.29561 c 0.50098,-0.78538 0.79439,-1.46932 0.88081,-2.05228 0.10109,-0.68189 -0.28625,-1.21334 -1.16133,-1.59489 L 833.6569,478.98 h 10.84866 l -0.0954,0.69587 c -0.9656,0.36496 -1.5017,0.92962 -1.60779,1.69477 -0.0762,0.54976 0.0388,1.22545 0.34558,2.02768 l 8.04197,20.64067 c 0.45457,1.16009 0.83198,1.9176 1.1315,2.27036 0.30194,0.3354 0.7964,0.57387 1.48341,0.71524 l -0.0874,0.71642 h -11.78625 l 0.097,-0.71642 c 1.14275,-0.19438 1.77287,-0.73288 1.89057,-1.61424 0.0729,-0.54555 -0.0508,-1.22213 -0.37057,-2.02913 z m -1.50628,-4.07967 -3.3356,-9.18548 -5.75061,9.18548 z m 17.22221,8.75209 2.75881,-23.52021 c 0.0605,-0.51598 -0.0103,-0.9067 -0.2122,-1.17253 -0.20179,-0.26565 -0.59145,-0.48967 -1.16888,-0.6721 l 0.0829,-0.69587 h 16.38519 c 3.4084,0 6.05447,0.42235 7.94104,1.26833 2.66006,1.19723 4.48476,3.18344 5.4733,5.96977 0.69445,1.95798 0.93545,4.25654 0.71963,6.90116 -0.40317,4.94027 -2.17193,8.72231 -5.31684,11.31487 -1.42128,1.16116 -3.05822,2.00759 -4.90964,2.53745 -1.83481,0.5128 -4.09414,0.76943 -6.77635,0.76943 h -16.94433 l 0.0886,-0.74293 c 0.62011,-0.15904 1.06801,-0.38865 1.34374,-0.68873 0.2927,-0.29987 0.47101,-0.72288 0.53503,-1.26864 z m 7.18105,-2.65738 h 7.33073 c 3.36633,0 5.88396,-0.7862 7.54836,-2.35432 1.73271,-1.63176 2.73054,-3.93863 2.99702,-6.90975 0.26464,-2.95068 -0.31371,-5.21379 -1.72968,-6.80011 -0.69764,-0.79094 -1.59873,-1.3622 -2.70357,-1.71465 -1.10229,-0.36892 -2.52285,-0.55326 -4.26238,-0.55326 h -7.17559 z m 37.4095,-7.10216 -0.4739,7.10216 h 18.2243 c 0.52973,0 0.93675,-0.1224 1.22097,-0.36707 0.30111,-0.24454 0.55108,-0.68961 0.74981,-1.33456 h 0.71628 l -0.37388,8.7622 h -0.72353 c -0.12791,-0.62161 -0.33221,-1.06508 -0.61295,-1.33095 -0.28136,-0.24799 -0.68848,-0.37194 -1.22148,-0.37194 h -26.89944 l 0.0569,-0.74293 c 0.61333,-0.15904 1.05145,-0.38865 1.31438,-0.68873 0.27992,-0.29987 0.44019,-0.72288 0.48094,-1.26864 l 1.75591,-23.52021 c 0.0386,-0.51598 -0.0488,-0.9067 -0.26218,-1.17253 -0.21313,-0.26565 -0.61234,-0.48967 -1.19754,-0.6721 l 0.0533,-0.69587 h 25.23869 c 0.53204,0 0.93635,-0.11588 1.2128,-0.34751 0.29291,-0.23151 0.53563,-0.64461 0.72807,-1.23876 h 0.67209 l -0.36151,8.29423 h -0.67873 c -0.13986,-0.62186 -0.34674,-1.0499 -0.62067,-1.28473 -0.25706,-0.23469 -0.65316,-0.35199 -1.18839,-0.35199 h -17.06085 l -0.41555,6.22784 h 10.66552 c 0.52233,0 0.92461,-0.119 1.20673,-0.35689 0.2988,-0.23776 0.55668,-0.66198 0.77355,-1.27215 h 0.68109 l -0.42572,8.31153 h -0.68774 c -0.13737,-0.62123 -0.34383,-1.0521 -0.61942,-1.29321 -0.25757,-0.25817 -0.65746,-0.38719 -1.19979,-0.38719 z m 42.97611,11.53137 -9.99195,-18.18791 -0.46876,16.41608 c -0.0155,0.54576 0.0925,0.96877 0.32425,1.26864 0.23244,0.28243 0.65519,0.52086 1.26833,0.71524 l -0.0191,0.71642 h -9.59405 l 0.028,-0.74293 c 0.60715,-0.15904 1.03633,-0.38865 1.2876,-0.68873 0.26826,-0.29987 0.41209,-0.72288 0.43161,-1.26864 l 0.84142,-23.52021 c 0.0184,-0.51598 -0.0842,-0.9067 -0.30778,-1.17253 -0.22285,-0.28225 -0.63076,-0.50625 -1.22367,-0.6721 l 0.0263,-0.69587 h 11.79634 l -0.0165,0.69587 c -0.7882,0.2488 -1.19121,0.72194 -1.20871,1.42014 -0.0172,0.68272 0.24585,1.51678 0.78985,2.50309 l 6.80674,11.9918 7.23455,-11.81603 c 0.81125,-1.32068 1.21759,-2.25437 1.22092,-2.80361 0.005,-0.6814 -0.40102,-1.11296 -1.21519,-1.29539 l 0.005,-0.69587 h 11.49707 l 0.005,0.69587 c -0.59815,0.16585 -1.01313,0.38985 -1.24489,0.6721 -0.23198,0.26583 -0.34693,0.65655 -0.34475,1.17253 l 0.0995,23.52021 c 0.002,0.54576 0.12421,0.96877 0.36584,1.26864 0.24179,0.30008 0.67237,0.53853 1.29179,0.71524 l 0.005,0.71642 h -10.21302 l 0.005,-0.74293 c 0.60204,-0.15904 1.02387,-0.38865 1.26551,-0.68873 0.25863,-0.29987 0.38889,-0.72288 0.39092,-1.26864 l 0.0608,-16.41608 z m 32.76071,-25.29204 0.51224,23.52021 c 0.0118,0.54576 0.14121,0.96877 0.3881,1.26864 0.24666,0.28243 0.68141,0.52086 1.30434,0.71524 l 0.017,0.71642 h -10.21303 l -0.009,-0.74293 c 0.59926,-0.15904 1.01705,-0.38865 1.25343,-0.68873 0.25337,-0.29987 0.37621,-0.72288 0.36865,-1.26864 l -0.32571,-23.52021 c -0.007,-0.51598 -0.12917,-0.9067 -0.36595,-1.17253 -0.23665,-0.26565 -0.65569,-0.48967 -1.25704,-0.6721 l -0.008,-0.69587 h 9.87601 l 0.0165,0.69587 c -0.59523,0.16585 -1.00628,0.38985 -1.23308,0.6721 -0.22732,0.26583 -0.33543,0.65655 -0.32419,1.17253 z m 34.89168,15.70018 4.7357,6.42353 -0.5607,0.44744 c -0.4306,-0.29835 -0.7655,-0.44744 -1.0051,-0.44744 -0.2909,0 -0.9461,0.32457 -1.9667,0.97444 -2.2625,1.40846 -4.2823,2.38827 -6.0557,2.9365 -1.7755,0.54894 -3.8428,0.82367 -6.2001,0.82367 -4.71446,0 -8.60485,-1.15977 -11.65888,-3.47005 -1.72333,-1.31717 -3.11028,-2.9624 -4.16116,-4.93193 -1.11866,-2.11636 -1.7114,-4.40316 -1.78199,-6.85758 -0.0966,-3.35842 0.77523,-6.30291 2.60669,-8.84177 2.85431,-3.93782 7.34531,-5.89305 13.49264,-5.89305 2.2762,0 4.3086,0.25632 6.0988,0.76941 1.809,0.51372 3.8861,1.43502 6.2352,2.76655 1.0738,0.61726 1.7533,0.92622 2.0373,0.92622 0.2338,0 0.5419,-0.14199 0.9238,-0.42581 l 0.6061,0.45087 -3.8512,6.18504 -0.5802,-0.40668 c 0.01,-0.20319 0.014,-0.33014 0.027,-0.3809 0.01,-0.15228 0.01,-0.26221 0.01,-0.32985 -0.051,-0.82772 -1.2401,-1.7633 -3.5636,-2.80601 -2.198,-0.98988 -4.3817,-1.48396 -6.5551,-1.48396 -3.04272,0 -5.51578,0.80421 -7.42457,2.41724 -2.1939,1.822 -3.24151,4.17002 -3.13529,7.0527 0.10752,2.91942 1.34418,5.32131 3.71718,7.19682 2.10013,1.6565 4.70043,2.48714 7.79488,2.48714 2.4277,0 4.8124,-0.62095 7.1493,-1.86016 1.8178,-0.97492 2.7028,-1.82616 2.6581,-2.55447 0,-0.0347 -0.043,-0.27714 -0.1211,-0.72707 z m 38.3707,-18.73703 2.8817,26.47789 c 0.06,0.54566 0.2245,0.95978 0.4956,1.24195 0.2712,0.28235 0.7257,0.5119 1.3635,0.68856 l 0.094,0.84896 h -10.9867 l -0.083,-0.84896 c 0.601,-0.17666 1.0075,-0.40621 1.2197,-0.68856 0.2121,-0.28217 0.2908,-0.69629 0.2362,-1.24195 l -2.6481,-26.47789 h -10.5681 c -0.4985,0 -0.8707,0.11576 -1.1167,0.34737 -0.2474,0.2152 -0.4289,0.62105 -0.5443,1.21811 h -0.7991 l -0.734,-8.69741 h 0.7909 c 0.2327,0.60192 0.4827,1.01726 0.7498,1.24546 0.2837,0.22834 0.6733,0.34255 1.1685,0.34255 h 28.351 c 0.5117,0 0.8856,-0.11421 1.1217,-0.34255 0.2359,-0.2282 0.3991,-0.64354 0.4896,-1.24546 h 0.7909 l 1.0825,8.69741 h -0.7991 c -0.2402,-0.59706 -0.5064,-1.00291 -0.7988,-1.21811 -0.2944,-0.23161 -0.699,-0.34737 -1.2141,-0.34737 z m 27.1228,16.79752 0.9821,7.10216 h 18.2243 c 0.5297,0 0.9116,-0.1224 1.1456,-0.36707 0.2511,-0.24454 0.4098,-0.68961 0.4763,-1.33456 h 0.7162 l 1.4225,8.7622 h -0.7235 c -0.2554,-0.62161 -0.5506,-1.06508 -0.8858,-1.33095 -0.3323,-0.24799 -0.7648,-0.37194 -1.2978,-0.37194 h -26.8994 l -0.095,-0.74293 c 0.5806,-0.15904 0.9717,-0.38865 1.1732,-0.68873 0.2184,-0.29987 0.292,-0.72288 0.2208,-1.26864 l -3.0658,-23.52021 c -0.067,-0.51598 -0.2347,-0.9067 -0.5025,-1.17253 -0.2676,-0.26565 -0.7127,-0.48967 -1.3353,-0.6721 l -0.089,-0.69587 h 25.2386 c 0.532,0 0.9126,-0.11588 1.1415,-0.34751 0.2455,-0.23151 0.4035,-0.64461 0.4741,-1.23876 h 0.6721 l 1.3388,8.29423 h -0.6786 c -0.2674,-0.62186 -0.562,-1.0499 -0.8841,-1.28473 -0.3052,-0.23469 -0.7253,-0.35199 -1.2606,-0.35199 h -17.0608 l 0.8612,6.22784 h 10.6654 c 0.5224,0 0.9003,-0.119 1.1337,-0.35689 0.25,-0.23776 0.4209,-0.66198 0.5127,-1.27215 h 0.6811 l 1.2781,8.31153 h -0.6877 c -0.2647,-0.62123 -0.5595,-1.0521 -0.8845,-1.29321 -0.3106,-0.25817 -0.7369,-0.38719 -1.2792,-0.38719 z m 47.5263,5.08712 h -13.1697 l -0.9221,3.19701 c -0.2242,0.77221 -0.298,1.37866 -0.221,1.81864 0.148,0.84601 0.7917,1.38444 1.9314,1.61414 l 0.1314,0.74293 h -10.6257 l -0.1222,-0.74293 c 0.6352,-0.10603 1.0825,-0.30918 1.3417,-0.60932 0.2762,-0.29992 0.5551,-0.89035 0.8364,-1.77011 l 6.685,-21.29561 c 0.2429,-0.78538 0.3115,-1.46932 0.2064,-2.05228 -0.1229,-0.68189 -0.6848,-1.21334 -1.6852,-1.59489 l -0.1245,-0.69587 h 10.8487 l 0.1333,0.69587 c -0.8457,0.36496 -1.1962,0.92962 -1.0509,1.69477 0.1045,0.54976 0.4414,1.22545 1.0119,2.02768 l 14.8236,20.64067 c 0.8359,1.16009 1.4622,1.9176 1.8775,2.27036 0.4122,0.3354 0.985,0.57387 1.7185,0.71524 l 0.148,0.71642 h -11.7861 l -0.1384,-0.71642 c 1.0789,-0.19438 1.5321,-0.73288 1.3602,-1.61424 -0.1064,-0.54555 -0.4525,-1.22213 -1.0373,-2.02913 z m -2.8467,-4.07967 -6.3537,-9.18548 -2.7325,9.18548 z m 37.2696,10.52392 -14.4852,-18.18791 3.5868,16.41608 c 0.1192,0.54576 0.3318,0.96877 0.6377,1.26864 0.3022,0.28243 0.7839,0.52086 1.445,0.71524 l 0.1579,0.71642 h -9.594 l -0.1556,-0.74293 c 0.5679,-0.15904 0.9404,-0.38865 1.1175,-0.68873 0.1941,-0.29987 0.2335,-0.72288 0.1181,-1.26864 l -4.9691,-23.52021 c -0.1091,-0.51598 -0.3082,-0.9067 -0.5975,-1.17253 -0.2925,-0.28225 -0.7558,-0.50625 -1.3897,-0.6721 l -0.1457,-0.69587 h 11.7963 l 0.1555,0.69587 c -0.7268,0.2488 -1.0129,0.72194 -0.8579,1.42014 0.1515,0.68272 0.6206,1.51678 1.4083,2.50309 l 9.7693,11.9918 4.3154,-11.81603 c 0.4849,-1.32068 0.6606,-2.25437 0.5282,-2.80361 -0.1642,-0.6814 -0.6759,-1.11296 -1.5352,-1.29539 l -0.1666,-0.69587 h 11.497 l 0.1762,0.69587 c -0.5572,0.16585 -0.9167,0.38985 -1.0788,0.6721 -0.1663,0.26583 -0.1848,0.65655 -0.055,1.17253 l 5.9101,23.52021 c 0.1372,0.54576 0.3636,0.96877 0.6794,1.26864 0.3159,0.30008 0.8054,0.53853 1.4684,0.71524 l 0.1814,0.71642 h -10.213 l -0.1794,-0.74293 c 0.5627,-0.15904 0.9279,-0.38865 1.0953,-0.68873 0.1846,-0.29987 0.2104,-0.72288 0.078,-1.26864 l -3.9949,-16.41608 z"
       id="text86"
       aria-label="Academic Team" />
    <path
       id="path115"
       style="opacity:1;fill:none;stroke:#000000;stroke-width:9.82256;stroke-linecap:round;stroke-dasharray:none"
       d="m 726.93674,604.92362 466.12646,-10e-6" />
    <path
       id="path136"
       style="opacity:1;fill:none;stroke:#000000;stroke-width:9.82256;stroke-linecap:round;stroke-dasharray:none"
       d="m 1148.4985,630.58387 36.3972,-1e-5" />
    <path
       id="path158"
       style="opacity:1;fill:none;stroke:#000000;stroke-width:9.82256;stroke-linecap:round;stroke-dasharray:none"
       d="m 1047.1215,630.58388 51.0287,-10e-6" />
    <path
       id="path156"
       style="opacity:1;fill:none;stroke:#000000;stroke-width:9.82256;stroke-linecap:round;stroke-dasharray:none"
       d="m 921.9299,630.58387 68.03912,2e-5" />
    <path
       id="path154"
       style="opacity:1;fill:none;stroke:#000000;stroke-width:9.82256;stroke-linecap:round;stroke-dasharray:none"
       d="m 836.20249,630.58387 h 48.98746" />
    <path
       id="path152"
       style="opacity:1;fill:none;stroke:#000000;stroke-width:9.82256;stroke-linecap:round;stroke-dasharray:none"
       d="m 735.10429,630.58385 43.94573,10e-6" />
    <path
       id="path133"
       style="opacity:1;fill:none;stroke:#000000;stroke-width:9.82256;stroke-linecap:round;stroke-dasharray:none"
       d="m 1042.3586,656.24411 h 130.9956" />
    <path
       id="path194"
       style="opacity:1;fill:none;stroke:#000000;stroke-width:9.82256;stroke-linecap:round;stroke-dasharray:none"
       d="M 898.11659,656.24412 H 1005.6173" />
    <path
       id="path192"
       style="opacity:1;fill:none;stroke:#000000;stroke-width:9.82256;stroke-linecap:round;stroke-dasharray:none"
       d="m 746.64581,656.24412 92.95748,-10e-6" />
    <path
       id="path130"
       style="opacity:1;fill:none;stroke:#000000;stroke-width:9.82256;stroke-linecap:round;stroke-dasharray:none"
       d="m 1133.5306,681.90436 h 24.3211" />
    <path
       id="path191"
       style="opacity:1;fill:none;stroke:#000000;stroke-width:9.82256;stroke-linecap:round;stroke-dasharray:none"
       d="m 1031.4719,681.90434 47.6279,2e-5" />
    <path
       id="path189"
       style="opacity:1;fill:none;stroke:#000000;stroke-width:9.82256;stroke-linecap:round;stroke-dasharray:none"
       d="m 954.58863,681.90436 36.06077,-10e-6" />
    <path
       id="path187"
       style="opacity:1;fill:none;stroke:#000000;stroke-width:9.82256;stroke-linecap:round;stroke-dasharray:none"
       d="m 840.28372,681.90438 h 68.71956" />
    <path
       id="path185"
       style="opacity:1;fill:none;stroke:#000000;stroke-width:9.82256;stroke-linecap:round;stroke-dasharray:none"
       d="m 762.14831,681.90437 47.51919,-10e-6" />
    <path
       id="path127"
       style="opacity:1;fill:none;stroke:#000000;stroke-width:9.82256;stroke-linecap:round;stroke-dasharray:none"
       d="m 1072.2957,707.56462 65.0565,-10e-6" />
    <path
       id="path184"
       style="opacity:1;fill:none;stroke:#000000;stroke-width:9.82256;stroke-linecap:round;stroke-dasharray:none"
       d="m 972.95989,707.56462 53.75041,10e-6" />
    <path
       id="path182"
       style="opacity:1;fill:none;stroke:#000000;stroke-width:9.82256;stroke-linecap:round;stroke-dasharray:none"
       d="m 889.27244,707.56461 h 38.10078" />
    <path
       id="path180"
       style="opacity:1;fill:none;stroke:#000000;stroke-width:9.82256;stroke-linecap:round;stroke-dasharray:none"
       d="m 782.64778,707.56461 52.87429,10e-6" />
    <path
       id="path124"
       style="opacity:1;fill:none;stroke:#000000;stroke-width:9.82256;stroke-linecap:round;stroke-dasharray:none"
       d="m 1052.5648,733.22488 57.2535,-2e-5" />
    <path
       id="path179"
       style="opacity:1;fill:none;stroke:#000000;stroke-width:9.82256;stroke-linecap:round;stroke-dasharray:none"
       d="m 960.03195,733.22487 59.19375,-10e-6" />
    <path
       id="path177"
       style="opacity:1;fill:none;stroke:#000000;stroke-width:9.82256;stroke-linecap:round;stroke-dasharray:none"
       d="m 896.07532,733.22485 30.61748,1e-5" />
    <path
       id="path175"
       style="opacity:1;fill:none;stroke:#000000;stroke-width:9.82256;stroke-linecap:round;stroke-dasharray:none"
       d="m 810.18165,733.22486 h 44.3908" />
    <path
       id="path121"
       style="opacity:1;fill:none;stroke:#000000;stroke-width:9.82256;stroke-linecap:round;stroke-dasharray:none"
       d="m 1016.504,758.8851 53.5867,2e-5" />
    <path
       id="path174"
       style="opacity:1;fill:none;stroke:#000000;stroke-width:9.82256;stroke-linecap:round;stroke-dasharray:none"
       d="m 919.20951,758.88511 41.50285,-1e-5" />
    <path
       id="path172"
       style="opacity:1;fill:none;stroke:#000000;stroke-width:9.82256;stroke-linecap:round;stroke-dasharray:none"
       d="m 849.90932,758.88513 35.96105,-10e-6" />
    <path
       id="path118"
       style="opacity:1;fill:none;stroke:#000000;stroke-width:9.82256;stroke-linecap:round;stroke-dasharray:none"
       d="m 938.14095,784.54536 43.71806,-10e-6" />
    <path
       id="path248"
       style="opacity:1;fill:#808080;stroke:#000000;stroke-width:10;stroke-linecap:round;stroke-dasharray:none"
       d="M 891.08502,797.19419 850.06,950.30163 m 219.88,-820.60329 -41.025,153.10744" />
    <path
       id="path259"
       style="opacity:1;fill:#808080;stroke:#000000;stroke-width:10;stroke-linecap:round;stroke-dasharray:none"
       d="M 771.72077,728.27921 659.63834,840.36163 m 600.72326,-600.7233 -112.0823,112.08244" />
    <path
       id="path260"
       style="opacity:1;fill:#808080;stroke:#000000;stroke-width:10;stroke-linecap:round;stroke-dasharray:none"
       d="m 694.02211,611.26855 -158.33636,42.4261 m 848.62845,-227.38933 -158.3363,42.4261" />
    <path
       id="path261"
       style="opacity:1;fill:#808080;stroke:#000000;stroke-width:10;stroke-linecap:round;stroke-dasharray:none"
       d="M 702.80578,471.08501 549.69835,430.06 m 820.60325,219.87998 -153.1074,-41.02499" />
    <path
       id="path262"
       style="opacity:1;fill:#808080;stroke:#000000;stroke-width:10;stroke-linecap:round;stroke-dasharray:none"
       d="M 771.72077,351.72076 659.63834,239.63833 M 1260.3616,840.36163 1148.2792,728.2792" />
    <path
       id="path249"
       style="opacity:1;fill:#808080;stroke:#000000;stroke-width:10;stroke-linecap:round;stroke-dasharray:none"
       d="M 891.08502,282.80578 850.06,129.69835 m 219.88,820.60327 -41.025,-153.10742" />
    <path
       id="path267"
       style="opacity:1;fill:#808080;stroke:#000000;stroke-width:10;stroke-linecap:round;stroke-dasharray:none"
       d="M 960.00001,993.34378 V 889.81129 m -2e-5,-44.76854 V 798.4967 m 2e-5,-711.840488 V 190.18868 m -2e-5,44.76854 v 46.54605" />
    <path
       id="path269"
       style="opacity:1;fill:#808080;stroke:#000000;stroke-width:10;stroke-linecap:round;stroke-dasharray:none"
       d="m 733.32812,932.60723 51.76624,-89.66176 m 22.38425,-38.77071 23.27303,-40.31006 m 355.92026,-616.47193 -51.7662,89.66174 m -22.3843,38.77069 -23.273,40.31006" />
    <path
       id="path270"
       style="opacity:1;fill:#808080;stroke:#000000;stroke-width:10;stroke-linecap:round;stroke-dasharray:none"
       d="m 567.39277,766.6719 89.66177,-51.76625 m 38.77068,-22.38429 40.31006,-23.27302 m 616.47192,-355.92022 -89.6617,51.76623 m -38.7707,22.38425 -40.31,23.27303" />
    <path
       id="path271"
       style="opacity:1;fill:#808080;stroke:#000000;stroke-width:10;stroke-linecap:round;stroke-dasharray:none"
       d="m 506.65622,540.00001 h 103.53249 m 44.76854,-2e-5 h 46.54605 m 711.8405,2e-5 h -103.5324 m -44.7687,-2e-5 h -46.546" />
    <path
       id="path272"
       style="opacity:1;fill:#808080;stroke:#000000;stroke-width:10;stroke-linecap:round;stroke-dasharray:none"
       d="m 567.39276,313.32812 89.66177,51.76624 m 38.7707,22.38425 40.31006,23.27303 m 616.47191,355.92026 -89.6617,-51.76623 m -38.7707,-22.3843 -40.31,-23.27302" />
    <path
       id="path268"
       style="opacity:1;fill:#808080;stroke:#000000;stroke-width:10;stroke-linecap:round;stroke-dasharray:none"
       d="m 733.3281,147.39277 51.76625,89.66177 m 22.38428,38.77068 23.27303,40.31006 m 355.92024,616.47195 -51.7662,-89.66174 m -22.3843,-38.77071 -23.273,-40.31005" />
  </g>
</svg>
