<?xml version="1.0" encoding="UTF-8" standalone="no"?>
<!-- Created with Inkscape (http://www.inkscape.org/) -->

<svg
   width="1122.5197"
   height="793.70081"
   viewBox="0 0 296.99998 210"
   version="1.1"
   id="svg1"
   inkscape:version="1.4.2 (f4327f4, 2025-05-13)"
   sodipodi:docname="nexus.svg"
   xmlns:inkscape="http://www.inkscape.org/namespaces/inkscape"
   xmlns:sodipodi="http://sodipodi.sourceforge.net/DTD/sodipodi-0.dtd"
   xmlns="http://www.w3.org/2000/svg"
   xmlns:svg="http://www.w3.org/2000/svg">
  <sodipodi:namedview
     id="namedview1"
     pagecolor="#ffffff"
     bordercolor="#000000"
     borderopacity="0.25"
     inkscape:showpageshadow="2"
     inkscape:pageopacity="0.0"
     inkscape:pagecheckerboard="0"
     inkscape:deskcolor="#d1d1d1"
     inkscape:document-units="px"
     inkscape:zoom="0.70710678"
     inkscape:cx="560.02857"
     inkscape:cy="337.28993"
     inkscape:window-width="1920"
     inkscape:window-height="974"
     inkscape:window-x="-11"
     inkscape:window-y="-11"
     inkscape:window-maximized="1"
     inkscape:current-layer="layer1" />
  <defs
     id="defs1">
    <rect
       x="89.095454"
       y="8.4852814"
       width="1006.9201"
       height="459.61941"
       id="rect2" />
    <rect
       x="341"
       y="89"
       width="538"
       height="153"
       id="rect23" />
    <rect
       x="395"
       y="15"
       width="413"
       height="103"
       id="rect22" />
    <rect
       x="57"
       y="25"
       width="855"
       height="300"
       id="rect21" />
    <rect
       x="287"
       y="21"
       width="414"
       height="117"
       id="rect20" />
    <inkscape:path-effect
       effect="envelope"
       id="path-effect18"
       is_visible="true"
       lpeversion="1"
       yy="true"
       xx="true"
       bendpath1="m 86.451438,95.479928 c 43.933772,-4.565461 86.466812,-6.640724 124.097102,0"
       bendpath2="M 210.54854,95.479928 V 114.52012"
       bendpath3="m 86.451438,114.52012 c 41.664962,4.48888 83.134432,6.04541 124.097102,0"
       bendpath4="M 86.451438,95.479928 V 114.52012"
       bendpath1-nodetypes="cc"
       bendpath3-nodetypes="cc" />
    <inkscape:path-effect
       effect="envelope"
       id="path-effect15"
       is_visible="true"
       lpeversion="1"
       yy="true"
       xx="true"
       bendpath1="m 86.451438,95.479928 c 43.933772,-4.565461 86.466812,-6.640724 124.097102,0"
       bendpath2="M 210.54854,95.479928 V 114.52012"
       bendpath3="m 86.451438,114.52012 c 41.664962,4.48888 83.134432,6.04541 124.097102,0"
       bendpath4="M 86.451438,95.479928 V 114.52012"
       bendpath1-nodetypes="cc"
       bendpath3-nodetypes="cc" />
    <inkscape:path-effect
       effect="perspective-envelope"
       up_left_point="87.115005,89.890842"
       up_right_point="209.55506,89.890842"
       down_left_point="80.798214,170.20933"
       down_right_point="215.87185,170.20933"
       id="path-effect8"
       is_visible="true"
       lpeversion="1"
       deform_type="perspective"
       horizontal_mirror="false"
       vertical_mirror="true"
       overflow_perspective="false" />
    <inkscape:path-effect
       effect="envelope"
       id="path-effect7"
       is_visible="true"
       lpeversion="1"
       yy="true"
       xx="true"
       bendpath1="m 86.451438,95.479928 c 43.933772,-4.565461 86.466812,-6.640724 124.097102,0"
       bendpath2="M 210.54854,95.479928 V 114.52012"
       bendpath3="m 86.451438,114.52012 c 41.664962,4.48888 83.134432,6.04541 124.097102,0"
       bendpath4="M 86.451438,95.479928 V 114.52012"
       bendpath1-nodetypes="cc"
       bendpath3-nodetypes="cc" />
    <inkscape:path-effect
       effect="envelope"
       id="path-effect5"
       is_visible="true"
       lpeversion="1"
       yy="true"
       xx="true"
       bendpath1="m 86.451438,95.479928 c 43.933772,-4.565461 86.466812,-6.640724 124.097102,0"
       bendpath2="M 210.54854,95.479928 V 114.52012"
       bendpath3="m 86.451438,114.52012 c 41.664962,4.48888 83.134432,6.04541 124.097102,0"
       bendpath4="M 86.451438,95.479928 V 114.52012"
       bendpath1-nodetypes="cc"
       bendpath3-nodetypes="cc" />
    <inkscape:path-effect
       effect="perspective-envelope"
       up_left_point="86.451438,95.479928"
       up_right_point="210.54854,95.479928"
       down_left_point="86.451438,114.52012"
       down_right_point="210.54854,114.52012"
       id="path-effect4"
       is_visible="true"
       lpeversion="1"
       deform_type="perspective"
       horizontal_mirror="false"
       vertical_mirror="false"
       overflow_perspective="false" />
    <rect
       x="340"
       y="341"
       width="498"
       height="165"
       id="rect1" />
  </defs>
  <g
     inkscape:label="Layer 1"
     inkscape:groupmode="layer"
     id="layer1">
    <path
       id="circle17"
       style="font-variation-settings:'wght' 900;fill:#003380;stroke:#00112b;stroke-width:10.5834;stroke-linecap:round;paint-order:stroke fill markers"
       transform="matrix(0,-1,-1,0,0,0)"
       d="M -11.866684,-148.49998 A 93.133316,93.133316 0 0 1 -105,-55.366669 93.133316,93.133316 0 0 1 -198.13332,-148.49998 93.133316,93.133316 0 0 1 -105,-241.6333 a 93.133316,93.133316 0 0 1 93.133316,93.13332 z" />
    <path
       id="circle11"
       style="font-variation-settings:'wght' 900;fill:#002255;stroke:#00112b;stroke-width:5.29167;stroke-linecap:round;paint-order:stroke fill markers"
       d="M 217.29165,105 A 68.791664,68.791664 0 0 1 148.49998,173.79166 68.791664,68.791664 0 0 1 79.708321,105 68.791664,68.791664 0 0 1 148.49998,36.208336 68.791664,68.791664 0 0 1 217.29165,105 Z" />
    <g
       id="g12"
       transform="rotate(-45,148.49997,104.99982)"
       style="stroke:#00112b;stroke-width:2.64583325;stroke-dasharray:none">
      <path
         id="path9"
         style="font-variation-settings:'wght' 900;fill:#003380;stroke-width:2.64583325;stroke-linecap:round;paint-order:stroke fill markers;stroke:#00112b;stroke-dasharray:none"
         d="m 148.49998,36.208125 a 68.791664,68.791664 0 0 0 -38.99246,12.118123 c 18.55598,6.446786 35.55286,33.611836 35.55287,56.977912 -3e-5,23.17461 -17.02396,49.73354 -35.58542,56.34695 a 68.791664,68.791664 0 0 0 38.84775,12.14034 68.791664,68.791664 0 0 0 0.17726,0 68.791664,68.791664 0 0 0 0.17725,0 68.791664,68.791664 0 0 0 38.84775,-12.14034 c -18.56146,-6.61341 -35.58539,-33.17234 -35.58542,-56.34695 1e-5,-23.36589 16.99654,-50.530848 35.55235,-56.977912 A 68.791664,68.791664 0 0 0 148.49998,36.208125 Z" />
      <path
         id="path11"
         style="font-variation-settings:'wght' 900;fill:#002255;stroke-width:2.64583325;stroke-linecap:round;paint-order:stroke fill markers;stroke:#00112b;stroke-dasharray:none"
         d="m 147.39062,43.121094 c -8.1713,0.1713 -16.30551,1.958494 -23.79296,5.234375 8.91178,6.772232 15.63844,16.052009 20.62182,25.994105 1.68172,3.415408 3.1131,6.953173 4.28833,10.574254 3.77414,-11.573158 10.1451,-22.33329 18.64186,-31.064811 1.96006,-1.969527 4.03978,-3.823867 6.26635,-5.487923 -8.16405,-3.592257 -17.11026,-5.370309 -26.0254,-5.25 z m 0.875,83.041016 c -4.1638,12.2193 -11.2969,23.47451 -20.81064,32.22673 -1.25154,1.13252 -2.55777,2.20472 -3.9042,3.22249 5.73538,2.55288 12.05743,4.22383 18.26242,4.89098 7.14509,0.79182 14.39913,0.30464 21.35086,-1.39879 3.4874,-0.861 6.97342,-2.02962 10.28321,-3.48829 -8.91624,-6.72425 -15.6984,-15.92749 -20.7185,-25.82762 -1.65834,-3.32818 -3.07429,-6.77679 -4.23658,-10.30909 -0.0755,0.22786 -0.15104,0.45572 -0.22657,0.68359 z" />
    </g>
    <text
       xml:space="preserve"
       transform="scale(0.26458333)"
       id="text1"
       style="fill:#002255;text-orientation:auto;font-size:89.99999834px;-inkscape-font-specification:'Copperplate Gothic Bold, @wght=900';font-family:'Copperplate Gothic Bold';stroke-width:10;stroke-linecap:round;text-align:center;paint-order:stroke fill markers;font-variation-settings:'wght' 900;font-variant-caps:small-caps;letter-spacing:0.15px;writing-mode:lr-tb;direction:ltr;white-space:pre;shape-inside:url(#rect1)" />
    <g
       id="g13"
       transform="rotate(45,148.49997,104.99983)"
       style="stroke:#00112b;stroke-width:2.64583325;stroke-dasharray:none">
      <path
         id="path12"
         style="font-variation-settings:'wght' 900;fill:#003380;stroke-width:2.64583325;stroke-linecap:round;paint-order:stroke fill markers;stroke:#00112b;stroke-dasharray:none"
         d="m 148.49998,36.208125 a 68.791664,68.791664 0 0 0 -38.99246,12.118123 c 18.55598,6.446786 35.55286,33.611836 35.55287,56.977912 -3e-5,23.17461 -17.02396,49.73354 -35.58542,56.34695 a 68.791664,68.791664 0 0 0 38.84775,12.14034 68.791664,68.791664 0 0 0 0.17726,0 68.791664,68.791664 0 0 0 0.17725,0 68.791664,68.791664 0 0 0 38.84775,-12.14034 c -18.56146,-6.61341 -35.58539,-33.17234 -35.58542,-56.34695 1e-5,-23.36589 16.99654,-50.530848 35.55235,-56.977912 A 68.791664,68.791664 0 0 0 148.49998,36.208125 Z" />
      <path
         id="path13"
         style="font-variation-settings:'wght' 900;fill:#002255;stroke-width:2.64583325;stroke-linecap:round;paint-order:stroke fill markers;stroke:#00112b;stroke-dasharray:none"
         d="m 147.39062,43.121094 c -8.1713,0.1713 -16.30551,1.958494 -23.79296,5.234375 8.91178,6.772232 15.63844,16.052009 20.62182,25.994105 1.68172,3.415408 3.1131,6.953173 4.28833,10.574254 3.77414,-11.573158 10.1451,-22.33329 18.64186,-31.064811 1.96006,-1.969527 4.03978,-3.823867 6.26635,-5.487923 -8.16405,-3.592257 -17.11026,-5.370309 -26.0254,-5.25 z m 0.875,83.041016 c -4.1638,12.2193 -11.2969,23.47451 -20.81064,32.22673 -1.25154,1.13252 -2.55777,2.20472 -3.9042,3.22249 5.73538,2.55288 12.05743,4.22383 18.26242,4.89098 7.14509,0.79182 14.39913,0.30464 21.35086,-1.39879 3.4874,-0.861 6.97342,-2.02962 10.28321,-3.48829 -8.91624,-6.72425 -15.6984,-15.92749 -20.7185,-25.82762 -1.65834,-3.32818 -3.07429,-6.77679 -4.23658,-10.30909 -0.0755,0.22786 -0.15104,0.45572 -0.22657,0.68359 z" />
    </g>
    <path
       id="text3"
       style="font-size:23.8125px;font-family:'Copperplate Gothic Bold';-inkscape-font-specification:'Copperplate Gothic Bold, @wght=900';font-variant-caps:small-caps;font-variation-settings:'wght' 900;text-align:center;letter-spacing:0.0396875px;text-anchor:middle;fill:#5599ff;stroke-width:2.64583325;stroke-linecap:round;paint-order:stroke fill markers;stroke:#003380;stroke-dasharray:none"
       d="m 189.8804,96.739923 c -0.11357,2.491111 -0.0744,8.518617 -0.0829,10.322327 -0.0104,2.21139 -0.41993,4.06185 -1.18157,5.30786 -1.24158,2.00167 -3.5911,3.40332 -7.21471,3.66492 -2.43975,0.17613 -4.39683,-0.28956 -5.94256,-1.35123 -1.10186,-0.76219 -1.86204,-1.86545 -2.27374,-3.19242 -0.38032,-1.21977 -0.56866,-2.66301 -0.5698,-4.28931 -0.002,-2.72395 -0.007,-7.711013 0.11435,-11.423829 0.0156,-0.478339 -0.0406,-0.857162 -0.17185,-1.122851 -0.13118,-0.265577 -0.3745,-0.500995 -0.73082,-0.703042 0.01,-0.233717 0.0206,-0.470914 0.0319,-0.711586 2.01327,0.109816 4.01636,0.235831 6.02749,0.376557 -0.0138,0.230857 -0.0267,0.458519 -0.0387,0.68297 -0.38258,0.136181 -0.65101,0.336301 -0.80486,0.595212 -0.15302,0.242993 -0.23979,0.605316 -0.25707,1.071783 -0.12517,3.37856 -0.11454,7.759216 -0.11642,10.247446 -8.3e-4,1.10153 0.0807,1.96821 0.24445,2.5805 0.17363,0.61132 0.46967,1.12377 0.88717,1.52338 0.84097,0.8178 2.03376,1.21061 3.60389,1.15587 1.56666,-0.0546 2.75124,-0.52575 3.57517,-1.34435 0.401,-0.402 0.68254,-0.90073 0.84422,-1.48638 0.16138,-0.58454 0.24541,-1.41376 0.24798,-2.46218 0.005,-2.14947 -0.0302,-6.796719 0.0976,-9.678492 0.0191,-0.431386 -0.0329,-0.773165 -0.16083,-1.015598 -0.11776,-0.241545 -0.35759,-0.460045 -0.72047,-0.653848 0.0138,-0.209673 0.0286,-0.422094 0.0448,-0.637233 1.89157,0.159947 3.76264,0.32637 5.65359,0.498411 -0.0171,0.20087 -0.0328,0.399487 -0.0472,0.595808 -0.37402,0.109995 -0.63951,0.279338 -0.7956,0.504299 -0.15507,0.210845 -0.2446,0.529802 -0.26353,0.945006 z m 20.072,1.143809 c -0.65178,1.203309 -1.38756,2.756868 -1.98711,3.983618 -0.12625,-0.0678 -0.25244,-0.13574 -0.37853,-0.20389 -0.0113,-0.33967 -0.12901,-0.6096 -0.35134,-0.80969 -0.6028,-0.53672 -1.47727,-0.996294 -2.61418,-1.38515 -1.13787,-0.389178 -2.28172,-0.620511 -3.44178,-0.669605 -0.98883,-0.04185 -1.86063,0.07191 -2.62734,0.35042 -1.10104,0.401361 -1.65131,1.032015 -1.64492,1.852955 0.004,0.54249 0.27383,0.92821 0.80741,1.16384 0.53354,0.2249 1.56297,0.412 3.09277,0.55748 0.81152,0.0734 1.62348,0.14508 2.4378,0.21534 2.12943,0.18664 3.7758,0.60673 4.90162,1.26036 0.62648,0.36822 1.14513,0.85731 1.54433,1.46761 0.50338,0.76558 0.73096,1.61967 0.6911,2.57781 -0.072,1.73203 -0.93835,3.11247 -2.45863,4.20584 -1.44804,1.04672 -3.41779,1.74974 -5.94977,1.94484 -2.59523,0.19998 -5.0829,-0.25869 -7.56815,-1.48215 -0.16579,-0.0785 -0.30432,-0.11491 -0.41567,-0.10891 -0.20181,0.0109 -0.38473,0.17054 -0.54099,0.487 -0.003,-0.001 -0.38594,-0.16815 -0.38884,-0.16941 0.49403,-1.75729 1.10393,-3.38815 1.69368,-4.87522 3.6e-4,1.5e-4 0.38013,0.15877 0.38049,0.15892 -2.3e-4,0.0259 -9.2e-4,0.10588 -0.001,0.13182 -0.002,0.28588 0.0977,0.52838 0.30005,0.72467 0.50636,0.47995 1.3847,0.89264 2.63716,1.2273 1.25465,0.32396 2.48759,0.46047 3.71298,0.42357 1.07995,-0.0325 2.05015,-0.21327 2.91285,-0.52929 1.06749,-0.384 1.6189,-0.96518 1.64297,-1.74932 0.0193,-0.62966 -0.33903,-1.06351 -1.07661,-1.30771 -0.49117,-0.16262 -1.38057,-0.29838 -2.66425,-0.40734 0.11099,0.009 -2.52682,-0.2022 -2.41583,-0.19336 -1.30193,-0.0994 -2.29172,-0.23238 -2.97628,-0.39979 -0.68391,-0.16723 -1.27986,-0.41528 -1.7893,-0.74512 -0.65141,-0.42511 -1.16218,-1.00851 -1.53146,-1.75423 -0.36934,-0.74585 -0.55944,-1.57425 -0.56314,-2.4958 -0.008,-2.069717 0.81916,-3.798584 2.50052,-4.927268 1.54723,-1.033616 3.37908,-1.415517 5.54021,-1.206704 1.16249,0.112323 2.22439,0.374853 3.19652,0.755249 0.98192,0.369222 2.14753,0.957717 3.53085,1.696102 0.41098,0.219211 0.70322,0.329155 0.86518,0.335568 0.16373,0.0065 0.37312,-0.09966 0.6336,-0.315325 0.12067,0.07212 0.24174,0.143773 0.36318,0.21497 z M 91.164325,102.17356 c -0.06519,3.2665 0.09737,6.46132 0.04904,9.83621 -0.0047,0.32896 0.05949,0.58761 0.196064,0.77546 0.146735,0.18817 0.395287,0.34453 0.746641,0.4694 -0.0071,0.14694 -0.01528,0.2944 -0.0246,0.44227 -1.893282,-0.0958 -3.788395,-0.18102 -5.682793,-0.25177 0.0076,-0.14219 0.01397,-0.28446 0.01923,-0.42668 0.360443,-0.08 0.614954,-0.2049 0.762438,-0.37499 0.157543,-0.16963 0.239279,-0.41411 0.241172,-0.73198 0.02796,-4.69549 0.04833,-9.31743 -0.0014,-14.013989 -0.0034,-0.317935 -0.08133,-0.557454 -0.22929,-0.717085 -0.148099,-0.159781 -0.408546,-0.289582 -0.780645,-0.389318 -0.0063,-0.142236 -0.01372,-0.284525 -0.02248,-0.42675 2.190313,-0.08401 4.378514,-0.188394 6.568318,-0.308211 0.01096,0.155596 0.02061,0.310643 0.02909,0.46505 -0.441793,0.143095 -0.654994,0.36576 -0.644352,0.669051 0.0091,0.260022 0.180151,0.555729 0.511996,0.889731 3.111204,3.110171 6.088471,6.133991 9.189352,9.343151 -0.0288,-3.29195 0.10444,-6.40154 -0.0103,-10.065204 -0.0115,-0.368321 -0.0955,-0.649073 -0.2475,-0.835071 -0.15273,-0.198342 -0.41652,-0.348117 -0.79058,-0.447474 -0.0101,-0.170707 -0.0214,-0.342731 -0.0339,-0.515999 1.89384,-0.129204 3.78888,-0.265158 5.68313,-0.404308 0.0129,0.186138 0.0245,0.370575 0.0351,0.553252 -0.35915,0.155015 -0.60419,0.345555 -0.73636,0.570324 -0.13286,0.21214 -0.19093,0.512243 -0.1784,0.894754 0.0231,0.705724 0.0194,14.755966 -0.001,15.414766 -0.0118,0.37917 0.0468,0.68238 0.17933,0.90451 0.13309,0.20944 0.37848,0.39661 0.73686,0.56107 -0.01,0.17443 -0.0206,0.35044 -0.0325,0.52798 -2.03684,-0.1361 -4.08396,-0.27108 -6.12104,-0.39938 0.0112,-0.16494 0.0213,-0.32881 0.0305,-0.49151 0.4539,-0.0829 0.69062,-0.29492 0.70446,-0.62952 0.007,-0.16696 -0.048,-0.34181 -0.16485,-0.52335 -0.11466,-0.17815 -0.38934,-0.54266 -0.81932,-1.05463 -2.265142,-2.60172 -6.939753,-7.09062 -9.161275,-9.30976 z m 23.803335,4.11592 c 0.002,1.37543 0.012,3.23994 -0.007,4.78211 3.64354,0.11537 7.20381,0.22483 10.83732,0.32239 0.31479,0.008 0.55398,-0.0787 0.71851,-0.26004 0.17455,-0.18097 0.31463,-0.51387 0.41903,-0.9869 -8.3e-4,-2e-5 0.42682,0.008 0.42599,0.008 -0.0124,2.06915 -0.05,4.54484 -0.21521,7.2962 -6.6e-4,-4e-5 -0.42749,-0.0275 -0.42815,-0.0275 -0.0555,-0.59593 -0.16839,-1.00969 -0.32893,-1.25941 -0.16164,-0.23416 -0.40134,-0.35742 -0.71637,-0.37476 -5.37097,-0.29555 -10.54584,-0.64162 -15.91798,-1.00278 0.0124,-0.19056 0.0237,-0.37925 0.034,-0.56602 0.36284,-0.0983 0.6211,-0.25718 0.77406,-0.47382 0.16298,-0.21585 0.25272,-0.5271 0.26555,-0.92438 0.0446,-1.38231 0.0519,-14.463824 0.004,-15.912686 -0.0132,-0.401943 -0.0981,-0.710315 -0.25064,-0.915063 -0.15265,-0.204906 -0.41674,-0.370476 -0.79185,-0.494038 -0.0106,-0.189099 -0.0223,-0.380184 -0.0351,-0.573203 5.20833,-0.389557 10.2575,-0.777533 15.46734,-1.123752 0.32576,-0.02165 0.566,-0.149866 0.71812,-0.389881 0.16189,-0.240081 0.28116,-0.663579 0.34698,-1.290926 -8.2e-4,6.3e-5 0.41457,-0.032 0.41375,-0.03194 0.16067,2.809938 0.19281,5.332288 0.20044,7.426705 -0.001,3.6e-5 -0.40974,0.01104 -0.41108,0.01108 -0.10339,-0.478229 -0.24281,-0.814747 -0.41712,-0.996954 -0.16428,-0.182702 -0.40851,-0.26901 -0.73374,-0.257618 -3.47365,0.121667 -6.88963,0.2518 -10.37192,0.38342 0.017,1.452862 0.008,3.065322 0.003,4.361882 0.8488,-0.009 5.59521,-0.0633 6.44401,-0.0726 0.31516,-0.004 0.55435,-0.0879 0.71735,-0.25421 0.17303,-0.16635 0.31648,-0.46277 0.42894,-0.89495 -0.004,6e-5 0.41531,-0.007 0.41155,-0.007 -0.004,1.943 -0.007,3.76062 -0.006,5.6713 -0.001,-1e-5 -0.41048,-0.004 -0.41149,-0.004 -0.10168,-0.42424 -0.23935,-0.71588 -0.41212,-0.87907 -0.16269,-0.17486 -0.40672,-0.26229 -0.73204,-0.26351 -0.24241,-9.1e-4 -6.20139,-0.0259 -6.4438,-0.0268 z" />
    <path
       id="circle16"
       style="font-variation-settings:'wght' 900;fill:none;stroke-width:5.29166;stroke-linecap:round;paint-order:stroke fill markers"
       transform="matrix(0,-1,-1,0,0,0)"
       d="M -16.100006,-148.49998 A 88.899994,88.899994 0 0 1 -105,-59.599991 a 88.899994,88.899994 0 0 1 -88.89999,-88.899989 88.899994,88.899994 0 0 1 88.89999,-88.9 88.899994,88.899994 0 0 1 88.899994,88.9 z" />
    <path
       id="path17"
       style="font-size:23.8125px;font-family:'Copperplate Gothic Bold';-inkscape-font-specification:'Copperplate Gothic Bold, @wght=900';font-variant-caps:small-caps;font-variation-settings:'wght' 900;text-align:center;letter-spacing:0.0396875px;text-anchor:middle;fill:#0066ff;stroke-width:2.64583325;stroke-linecap:round;paint-order:stroke fill markers;stroke:none;stroke-dasharray:none;opacity:1"
       d="M 87.500083 104.775 C 87.498042 107.14779 87.485902 109.52013 87.471661 111.91151 C 87.469768 112.22938 87.387874 112.47362 87.230332 112.64325 C 87.082848 112.81333 86.828548 112.93838 86.468104 113.01842 C 86.462841 113.16064 86.456077 113.30307 86.448467 113.44527 C 88.342866 113.51601 90.238043 113.60115 92.131324 113.69693 C 92.140645 113.54906 92.149008 113.40152 92.156129 113.25458 C 91.804775 113.12971 91.55614 112.97354 91.409405 112.78536 C 91.272829 112.59752 91.20884 112.33866 91.213551 112.0097 C 91.248998 109.53435 91.170951 107.15593 91.152573 104.775 L 87.500083 104.775 z M 93.799956 104.775 C 96.058356 107.00018 98.764372 109.68984 100.32566 111.48311 C 100.75564 111.99508 101.03007 112.35968 101.14473 112.53783 C 101.26159 112.71938 101.31648 112.89435 101.30958 113.06131 C 101.29573 113.39591 101.05913 113.60781 100.60523 113.69073 C 100.59613 113.85344 100.58598 114.01723 100.57474 114.18217 C 102.61182 114.31047 104.65897 114.44553 106.69581 114.58163 C 106.70769 114.40409 106.71854 114.22793 106.72837 114.0535 C 106.36999 113.88904 106.12456 113.70226 105.99146 113.49281 C 105.85888 113.27068 105.80035 112.96713 105.81214 112.58796 C 105.82251 112.25488 105.82871 108.49895 105.8292 104.775 L 102.09609 104.775 C 102.08827 105.65407 102.08417 106.5317 102.09196 107.4229 C 101.227 106.52774 100.37184 105.64721 99.520537 104.775 L 93.799956 104.775 z M 110.86506 104.775 C 110.86384 108.43791 110.85093 112.12401 110.82837 112.82257 C 110.81555 113.21984 110.72574 113.53121 110.56276 113.74706 C 110.4098 113.96369 110.15149 114.12262 109.78864 114.22093 C 109.77837 114.40771 109.76747 114.59624 109.75505 114.78679 C 115.12719 115.14795 120.30198 115.49428 125.67295 115.78983 C 125.98797 115.80716 126.22754 115.93032 126.38918 116.16448 C 126.54972 116.41419 126.66282 116.82791 126.71836 117.42384 L 127.14624 117.45174 C 127.31148 114.70039 127.34938 112.22469 127.36173 110.15555 L 126.9354 110.14728 C 126.83101 110.62031 126.69085 110.95282 126.5163 111.13378 C 126.35178 111.31516 126.1128 111.40268 125.798 111.39423 C 122.16449 111.29667 118.60448 111.18714 114.96094 111.07177 C 114.97993 109.52959 114.96995 107.66506 114.96766 106.28963 C 115.21007 106.29054 121.1693 106.31559 121.41171 106.3165 C 121.73703 106.31773 121.98075 106.40467 122.14345 106.57954 C 122.31622 106.74273 122.45414 107.03484 122.55582 107.45907 L 122.96717 107.46217 C 122.96682 106.55316 122.96714 105.66541 122.9682 104.775 L 110.86506 104.775 z M 172.6153 104.775 C 172.61412 105.68957 172.61482 106.5175 172.6153 107.20224 C 172.61643 108.82854 172.80445 110.27162 173.18477 111.49138 C 173.59647 112.81835 174.35668 113.92177 175.45854 114.68395 C 177.00427 115.74563 178.96158 116.21091 181.40132 116.03477 C 185.02493 115.77318 187.3743 114.37155 188.61587 112.36988 C 189.37751 111.12387 189.78732 109.27359 189.79771 107.0622 C 189.80004 106.56578 189.79842 105.74949 189.79771 104.775 L 186.07236 104.775 C 186.07287 105.3102 186.07281 105.78786 186.07184 106.18163 C 186.06927 107.23006 185.98569 108.05896 185.82431 108.64349 C 185.66263 109.22915 185.38092 109.72822 184.97992 110.13023 C 184.15599 110.94883 182.97161 111.41971 181.40494 111.47433 C 179.83482 111.52907 178.64199 111.13664 177.80103 110.31884 C 177.38353 109.91923 177.08738 109.40674 176.91374 108.79542 C 176.74998 108.18313 176.66848 107.31623 176.66931 106.2147 C 176.66964 105.78603 176.66949 105.30121 176.66983 104.775 L 172.6153 104.775 z M 194.50285 104.775 C 194.76821 105.08822 195.07313 105.35674 195.41701 105.58115 C 195.92645 105.911 196.52213 106.1591 197.20604 106.32632 C 197.89038 106.49369 198.87975 106.62636 200.18106 106.72578 C 200.26381 106.73244 202.70534 106.92808 202.59848 106.91957 C 203.88217 107.02852 204.77123 107.16415 205.2624 107.32678 C 205.99998 107.57098 206.35867 108.00505 206.33934 108.63471 C 206.31526 109.41885 205.76352 109.99995 204.69603 110.38396 C 203.83333 110.69998 202.8635 110.88061 201.78354 110.91312 C 200.55816 110.95002 199.32524 110.81334 198.07059 110.48938 C 196.81813 110.15472 195.93938 109.74201 195.43303 109.26206 C 195.23066 109.06577 195.13087 108.82344 195.1333 108.53756 C 195.13353 108.51162 195.13411 108.43172 195.13434 108.40578 L 194.754 108.24662 C 194.16424 109.73369 193.55407 111.365 193.06004 113.12229 C 193.06294 113.12355 193.44627 113.29001 193.44917 113.29127 C 193.60543 112.97481 193.78842 112.81536 193.99022 112.80448 C 194.10157 112.79848 194.23991 112.83498 194.4057 112.91352 C 196.89095 114.13698 199.37848 114.59557 201.97371 114.3956 C 204.50569 114.2005 206.4757 113.49722 207.92374 112.4505 C 209.44402 111.35713 210.30993 109.9771 210.38198 108.24507 C 210.42184 107.28694 210.19445 106.43252 209.69107 105.66693 C 209.47292 105.33342 209.21903 105.03617 208.93143 104.775 L 194.50285 104.775 z " />
    <g
       id="g18">
      <path
         id="text4"
         style="font-size:67.2003px;font-family:'Copperplate Gothic Bold';-inkscape-font-specification:'Copperplate Gothic Bold, @wght=900';font-variant-caps:small-caps;font-variation-settings:'wght' 900;text-align:center;letter-spacing:0.112px;text-anchor:middle;fill:#55ff99;stroke:none;stroke-width:2.64583;stroke-linecap:round;paint-order:stroke fill markers"
         d="M 148.69583 97.135153 L 148.69583 112.24276 L 156.60491 122.40699 C 157.39241 123.43512 157.78571 124.179 157.78571 124.63838 C 157.78571 125.02747 157.65611 125.35588 157.39659 125.62385 C 157.31559 125.70753 157.22177 125.78556 157.11547 125.85743 C 156.79649 126.07301 156.36401 126.23541 155.81736 126.34474 L 155.81736 127.3948 L 173.56873 127.3948 L 173.56873 126.34474 C 173.00016 126.25727 172.49161 126.1259 172.04324 125.95096 C 171.5948 125.77596 171.20606 125.55718 170.87794 125.29467 C 170.24356 124.76967 169.18269 123.54445 167.69519 121.61945 L 154.14356 104.06496 L 167.03889 88.281947 C 168.89828 86.028812 170.04718 84.727277 170.48468 84.377276 C 170.94406 84.005399 171.69862 83.764732 172.74862 83.655356 L 172.74862 82.605291 L 155.25925 82.605291 L 155.25925 83.655356 C 155.6366 83.715513 155.96688 83.798129 156.24989 83.903403 C 156.46214 83.982348 156.64778 84.074002 156.80696 84.178322 C 157.28454 84.491324 157.5232 84.918489 157.5232 85.459897 C 157.5232 86.006775 156.99862 86.947566 155.94862 88.281947 L 148.82812 97.305169 L 148.69583 97.135153 z " />
      <path
         id="path18"
         style="font-size:67.2003px;font-family:'Copperplate Gothic Bold';-inkscape-font-specification:'Copperplate Gothic Bold, @wght=900';font-variant-caps:small-caps;font-variation-settings:'wght' 900;text-align:center;letter-spacing:0.112px;text-anchor:middle;fill:#00ff66;stroke:none;stroke-width:2.64583;stroke-linecap:round;paint-order:stroke fill markers"
         d="M 124.38258 82.605291 L 124.41566 83.655356 C 125.59692 83.764732 126.44967 84.037959 126.97467 84.475461 C 127.52155 84.891088 128.6043 86.160062 130.22306 88.281947 L 142.6595 104.55692 L 129.14043 121.61945 C 127.45605 123.74133 126.32955 125.03218 125.7608 125.49156 C 125.21392 125.95093 124.43748 126.23536 123.43122 126.34474 L 123.43122 127.3948 L 140.625 127.3948 L 140.625 126.34474 C 139.15937 126.21349 138.42669 125.60088 138.42669 124.50713 C 138.42669 124.02587 138.87495 123.20567 139.77183 122.04629 L 147.97494 111.3162 L 148.69583 112.24276 L 148.69583 97.135153 L 141.80633 88.281947 C 140.86569 87.056942 140.39504 86.181787 140.39504 85.656784 C 140.39504 84.672405 141.05141 84.005358 142.36392 83.655356 L 142.36392 82.605291 L 124.38258 82.605291 z " />
    </g>
    <path
       d="m 100.35506,166.19858 -6.340365,7.76982 q -0.189905,0.23272 -0.182821,0.4386 0.0071,0.20588 0.216079,0.50148 l -0.196031,0.24023 -3.198015,-2.60966 0.196031,-0.24023 q 0.331514,0.14547 0.534628,0.11112 0.203115,-0.0344 0.39302,-0.26707 l 6.340368,-7.76983 -3.183002,-2.59741 q -0.225212,-0.18378 -0.431089,-0.17669 -0.19975,-4.2e-4 -0.495356,0.20857 l -0.240226,-0.19603 2.162463,-2.65 0.240227,0.19603 q -0.144083,0.34515 -0.11724,0.54214 0.03435,0.20311 0.259562,0.38689 l 8.595607,7.01422 q 0.23272,0.18991 0.43859,0.18283 0.20588,-0.007 0.50761,-0.22359 l 0.24023,0.19603 -2.16246,2.65 -0.24023,-0.19603 q 0.14546,-0.33152 0.10499,-0.52712 -0.0344,-0.20312 -0.26707,-0.39302 z m 3.27155,10.18356 -1.35047,2.27449 5.92366,3.51716 q 0.25827,0.15335 0.46083,0.11586 0.21089,-0.0325 0.47724,-0.29134 l 0.23328,0.13851 -1.64233,2.76603 -0.23328,-0.13851 q 0.0981,-0.33612 0.0307,-0.54518 -0.0724,-0.20074 -0.33066,-0.35409 l -8.689694,-5.15949 0.13851,-0.23328 q 0.336122,0.0982 0.536857,0.0258 0.209067,-0.0674 0.362417,-0.3257 l 4.53125,-7.63161 q 0.15335,-0.25827 0.11586,-0.46083 -0.0375,-0.20256 -0.28301,-0.47229 l 0.13851,-0.23328 8.43142,5.00614 q 0.26661,0.1583 0.46917,0.12081 0.21089,-0.0325 0.47228,-0.28301 l 0.22495,0.13356 -1.64233,2.76604 -0.22495,-0.13356 q 0.0997,-0.35773 0.0273,-0.55847 -0.0641,-0.19579 -0.33065,-0.35408 l -5.66539,-3.36381 -1.2169,2.04953 3.51587,2.08754 q 0.25827,0.15335 0.46083,0.11586 0.21089,-0.0325 0.48062,-0.27806 l 0.22495,0.13356 -1.60276,2.69939 -0.22495,-0.13356 q 0.0948,-0.3494 0.0224,-0.55014 -0.0591,-0.20412 -0.32571,-0.36242 z m 17.22667,9.15128 0.61845,2.82496 -0.2685,0.0686 q -0.15332,-0.24021 -0.27897,-0.29134 -0.15258,-0.0621 -0.84413,0.0436 -1.5217,0.21771 -2.57726,0.11251 -1.05557,-0.10521 -2.28513,-0.60549 -2.45912,-1.00056 -3.53341,-2.80801 -0.60567,-1.03098 -0.71357,-2.25694 -0.11094,-1.32135 0.41125,-2.60476 0.71938,-1.76805 2.29393,-2.70697 2.4683,-1.46443 5.78901,-0.1133 1.22956,0.50028 2.0677,1.16558 0.84711,0.66895 1.77556,1.88357 0.42134,0.55848 0.57391,0.62055 0.12565,0.0511 0.40312,-0.0138 l 0.1407,0.24554 -2.41142,1.58172 -0.13902,-0.22394 q 0.0528,-0.10404 0.0727,-0.12732 0.0418,-0.0771 0.0564,-0.11302 0.17893,-0.43977 -0.80628,-1.48919 -0.93334,-0.99694 -2.10007,-1.47165 -1.63343,-0.66461 -3.04303,-0.23392 -1.606,0.47631 -2.22313,1.99307 -0.62079,1.52574 0.19644,2.988 0.72111,1.28717 2.34556,1.94812 1.27444,0.51854 2.79917,0.39621 1.19173,-0.10091 1.3451,-0.47786 0.007,-0.0179 0.0753,-0.26225 z m 11.35379,2.10792 -5.8972,-1.37707 -0.84828,3.63267 q -0.0683,0.29251 0.0263,0.48376 0.0968,0.18181 0.41229,0.36492 l -0.0595,0.25476 -3.73647,-0.87251 0.0617,-0.2642 q 0.35007,-0.008 0.51962,-0.13736 0.17899,-0.12735 0.2473,-0.41985 l 2.01823,-8.64294 q 0.0683,-0.2925 -0.0285,-0.47431 -0.0968,-0.18182 -0.41229,-0.36493 l 0.0617,-0.26419 3.73646,0.87251 -0.0617,0.26419 q -0.36171,0.015 -0.53127,0.1446 -0.16735,0.12012 -0.23565,0.41262 l -0.72269,3.09485 5.8972,1.37707 0.72269,-3.09485 q 0.0683,-0.2925 -0.0285,-0.47431 -0.0874,-0.17962 -0.41229,-0.36493 l 0.0617,-0.26419 3.73647,0.87251 -0.0617,0.26419 q -0.36171,0.015 -0.53127,0.1446 -0.16735,0.12012 -0.23565,0.41262 l -2.01824,8.64293 q -0.0683,0.29251 0.0263,0.48376 0.0968,0.18181 0.41229,0.36492 l -0.0595,0.25476 -3.73647,-0.87251 0.0617,-0.2642 q 0.35008,-0.008 0.51963,-0.13736 0.17899,-0.12735 0.24729,-0.41985 z m 7.45929,-1.2978 -0.40681,6.14899 q -0.0198,0.29971 0.10466,0.47303 0.13415,0.17395 0.46614,0.29302 l -0.0173,0.26104 -3.59658,-0.23794 0.0179,-0.27071 q 0.34414,-0.0646 0.49037,-0.22003 0.1559,-0.15477 0.17573,-0.45448 l 0.5859,-8.85609 q 0.0198,-0.29972 -0.10529,-0.46336 -0.12512,-0.16365 -0.46614,-0.29303 l 0.0179,-0.27071 4.15733,0.27504 -0.0179,0.27071 q -0.43244,0.0782 -0.45035,0.34892 -0.0154,0.23204 0.27357,0.56189 l 5.41971,6.14604 0.39465,-5.9653 q 0.0198,-0.29971 -0.10529,-0.46336 -0.12448,-0.17331 -0.46614,-0.29302 l 0.0179,-0.27071 3.59658,0.23794 -0.0179,0.27071 q -0.35446,0.0737 -0.50068,0.22906 -0.14559,0.14574 -0.16542,0.44545 l -0.5859,8.85609 q -0.0198,0.29972 0.10465,0.47303 0.12512,0.16365 0.46614,0.29303 l -0.0173,0.26104 -3.87696,-0.25649 0.0173,-0.26105 q 0.43116,-0.0589 0.44907,-0.32958 0.009,-0.13535 -0.0975,-0.28805 -0.10642,-0.1527 -0.49401,-0.6056 z m 16.34684,-3.89173 q 2.57491,-0.25042 4.41907,0.89419 2.20796,1.38181 2.48277,4.20746 0.25793,2.65206 -1.64239,4.43343 -1.56976,1.47664 -4.14466,1.72707 -2.57491,0.25042 -4.39979,-0.89607 -2.2176,-1.38087 -2.48398,-4.11973 -0.26918,-2.76778 1.6436,-4.52116 1.58222,-1.44864 4.12538,-1.72519 z m 0.20848,2.04356 q -1.66838,0.16226 -2.61545,1.33496 -0.87649,1.0977 -0.72923,2.61178 0.14631,1.50444 1.21789,2.41267 1.15622,0.97788 2.83425,0.81468 1.66839,-0.16226 2.61452,-1.34461 0.87743,-1.08805 0.73486,-2.55391 -0.15476,-1.59124 -1.22352,-2.47053 -1.16305,-0.94801 -2.83332,-0.80504 z m 11.54487,5.28964 5.89958,-1.45032 q 0.30109,-0.074 0.41926,-0.24276 0.11816,-0.16874 0.13608,-0.54232 l 0.25404,-0.0625 0.76795,3.12385 -0.25404,0.0625 q -0.17737,-0.3156 -0.36971,-0.40801 -0.18293,-0.0947 -0.48402,-0.0207 l -9.02343,2.21827 -0.0648,-0.26346 q 0.30851,-0.16564 0.40091,-0.35798 0.10182,-0.19465 0.0301,-0.48634 l -2.1188,-8.61883 q -0.0717,-0.29169 -0.24045,-0.40985 -0.16874,-0.11816 -0.53291,-0.13839 l -0.0648,-0.26346 3.72605,-0.91599 0.0648,0.26346 q -0.3156,0.17736 -0.408,0.3697 -0.0947,0.18293 -0.023,0.47462 z m 9.95107,-12.66314 q 2.39753,-0.97197 4.49097,-0.39874 2.50965,0.69725 3.57626,3.32824 1.0011,2.46937 -0.31452,4.7174 -1.08531,1.86191 -3.48284,2.83388 -2.39753,0.97197 -4.47301,0.39146 -2.51863,-0.69361 -3.55248,-3.24379 -1.04478,-2.57712 0.29074,-4.80185 1.10521,-1.83862 3.46488,-2.8266 z m 0.78073,1.90001 q -1.55346,0.62978 -2.12814,2.0233 -0.52834,1.30154 0.0432,2.71133 0.56789,1.4008 1.85342,1.96699 1.38648,0.60891 2.94892,-0.0245 1.55345,-0.62977 2.1245,-2.03227 0.53198,-1.29257 -0.0213,-2.65745 -0.60066,-1.48162 -1.87526,-2.02088 -1.38454,-0.57833 -2.94528,0.0335 z m 17.02826,-3.46755 -2.1122,1.28196 q -0.26506,0.16087 -0.33549,0.3623 -0.0622,0.1964 0.036,0.54486 l -0.22364,0.13574 -1.48808,-2.4518 0.22365,-0.13574 q 0.25878,0.23964 0.4617,0.27516 0.21119,0.0305 0.47625,-0.13037 l 4.4149,-2.67954 0.14579,0.24021 q -0.23963,0.25879 -0.26836,0.49158 -0.0205,0.22776 0.15551,0.51767 l 1.18644,1.95481 q 0.15584,0.25678 0.35727,0.32721 0.20971,0.0654 0.54989,-0.0277 l 0.11563,0.19051 q -1.78385,3.11152 -4.45101,4.7303 -2.30271,1.39759 -4.38598,1.17719 -1.1323,-0.12885 -2.13732,-0.7203 -1.18841,-0.70685 -1.90731,-1.89133 -0.9954,-1.64006 -0.75906,-3.52899 0.3773,-2.92657 3.45862,-4.79671 1.35015,-0.81945 3.44328,-1.27377 0.82827,-0.18533 0.94423,-0.25572 0.14081,-0.0855 0.25089,-0.33362 l 0.26415,-0.013 0.31603,3.00447 -0.25912,0.0212 q -0.0201,-0.0331 -0.0302,-0.0497 -0.18601,-0.30648 -0.99503,-0.2575 -1.50177,0.0841 -2.80222,0.87335 -1.49925,0.90994 -1.96239,2.31313 -0.4877,1.47477 0.3971,2.9326 0.8295,1.36672 2.24663,1.62872 1.45203,0.26348 3.15835,-0.77214 1.62349,-0.98534 2.37472,-2.26869 z m 7.73232,-6.65513 2.40819,2.89952 q 0.19191,0.23106 0.4015,0.27111 0.20341,0.0326 0.53984,-0.10828 l 0.16715,0.20125 -2.9517,2.45152 -0.16715,-0.20126 q 0.20643,-0.2974 0.21173,-0.50333 -8.9e-4,-0.21338 -0.19899,-0.4519 l -2.40818,-2.89952 -5.30381,-1.35107 q -0.89409,-0.22726 -1.32086,-0.22548 -0.4255,-0.0119 -0.83028,0.19836 l -0.17334,-0.2087 3.7567,-3.12011 0.17334,0.2087 q -0.37925,0.52911 -0.10686,0.85708 0.13619,0.16398 0.89511,0.36497 l 2.61406,0.67547 -0.21395,-2.66888 q -0.0644,-0.79036 -0.20064,-0.95435 -0.26001,-0.31306 -0.84849,-0.051 l -0.18079,-0.20251 3.57782,-2.97154 0.17334,0.2087 q -0.28097,0.35931 -0.35487,0.78596 -0.0726,0.413 -0.0134,1.33362 z"
       id="text21"
       style="font-size:19.8438px;font-family:'Copperplate Gothic Bold';-inkscape-font-specification:'Copperplate Gothic Bold, @wght=900';font-variant-caps:small-caps;font-variation-settings:'wght' 900;text-align:center;letter-spacing:0.0396875px;text-anchor:middle;white-space:pre;fill:#00112b;stroke-width:20;stroke-linecap:round;paint-order:stroke fill markers"
       aria-label="Technology" />
    <path
       id="circle22"
       style="font-variation-settings:'wght' 900;fill:none;stroke-width:5.29166;stroke-linecap:round;paint-order:stroke fill markers"
       transform="matrix(0,-1,-1,0,0,0)"
       d="M -20.862503,-148.49998 A 84.137497,84.137497 0 0 1 -105,-64.362488 a 84.137497,84.137497 0 0 1 -84.1375,-84.137492 84.137497,84.137497 0 0 1 84.1375,-84.1375 84.137497,84.137497 0 0 1 84.137497,84.1375 z" />
    <path
       id="circle23"
       style="font-variation-settings:'wght' 900;fill:none;stroke:#00112b;stroke-width:5.29166;stroke-linecap:round;paint-order:stroke fill markers"
       transform="rotate(90)"
       d="M 174.05625,-148.49998 A 69.056252,69.056252 0 0 1 105,-79.443733 69.056252,69.056252 0 0 1 35.943748,-148.49998 69.056252,69.056252 0 0 1 105,-217.55624 a 69.056252,69.056252 0 0 1 69.05625,69.05626 z" />
    <path
       d="m 94.641633,49.740993 -7.632876,-8.197515 q -0.198085,-0.212738 -0.403008,-0.233759 -0.204923,-0.02102 -0.526237,0.145768 l -0.211291,-0.22692 3.020883,-2.812808 0.211291,0.226921 q -0.19586,0.301524 -0.18289,0.514515 0.0064,0.2059 0.204452,0.418638 l 7.632876,8.197515 q 0.204688,0.21983 0.416214,0.247942 0.212015,0.01442 0.519635,-0.15286 l 0.211291,0.226921 -3.020884,2.812807 -0.211291,-0.226921 q 0.189258,-0.308615 0.18289,-0.514515 -0.0064,-0.2059 -0.211055,-0.425729 z m 3.1154,-10.825483 3.531327,5.050278 q 0.17212,0.246162 0.37768,0.30342 0.2135,0.05171 0.54695,-0.06322 l 0.14991,0.214399 -2.953933,2.06549 -0.155467,-0.22234 q 0.227953,-0.2658 0.244732,-0.478525 0.02472,-0.218277 -0.147405,-0.464439 l -5.085992,-7.273671 q -0.172124,-0.246161 -0.372132,-0.295478 -0.200008,-0.04932 -0.546949,0.06322 l -0.155467,-0.22234 3.414496,-2.387529 0.155467,0.22234 q -0.288314,0.331652 -0.132847,0.553992 0.133258,0.190576 0.565036,0.267002 l 8.073641,1.401214 -3.42583,-4.899404 q -0.17212,-0.246162 -0.37213,-0.295479 -0.20556,-0.05726 -0.54695,0.06322 l -0.15547,-0.22234 2.95394,-2.06549 0.15547,0.222339 q -0.23034,0.279294 -0.24712,0.492019 -0.0223,0.204784 0.14979,0.450946 l 5.08599,7.27367 q 0.17213,0.246162 0.37769,0.30342 0.2,0.04932 0.54695,-0.06322 l 0.14991,0.214399 -3.18422,2.226509 -0.14991,-0.214398 q 0.29942,-0.315772 0.14395,-0.538111 -0.0777,-0.11117 -0.25631,-0.163651 -0.17857,-0.05248 -0.76433,-0.163119 z m 13.745557,-8.515219 2.49424,5.635096 q 0.12157,0.274666 0.31229,0.370385 0.19957,0.0918 0.5489,0.04314 l 0.10588,0.239225 -3.296,1.458897 -0.10981,-0.248086 q 0.27482,-0.217004 0.33219,-0.422532 0.0662,-0.20945 -0.0553,-0.484117 l -3.59234,-8.115955 q -0.12157,-0.274667 -0.30836,-0.361525 -0.1868,-0.08686 -0.5489,-0.04314 l -0.10981,-0.248086 3.80989,-1.686358 0.10981,0.248086 q -0.34671,0.27002 -0.2369,0.518105 0.0941,0.212646 0.50314,0.370676 l 7.6535,2.927628 -2.41973,-5.466751 q -0.12157,-0.274667 -0.30836,-0.361525 -0.19071,-0.09572 -0.5489,-0.04314 l -0.10981,-0.248086 3.296,-1.458896 0.10981,0.248086 q -0.27975,0.229786 -0.33712,0.435314 -0.0613,0.196668 0.0603,0.471335 l 3.59233,8.115955 q 0.12158,0.274666 0.31229,0.370385 0.18679,0.08686 0.5489,0.04314 l 0.10589,0.239226 -3.55295,1.572627 -0.10589,-0.239226 q 0.35456,-0.252299 0.24475,-0.500385 -0.0549,-0.124043 -0.22006,-0.209885 -0.16515,-0.08584 -0.71869,-0.307056 z m 17.23049,-10.223849 q 2.51924,-0.588488 4.49848,0.302393 2.3712,1.077927 3.01699,3.842482 0.60612,2.594719 -1.04213,4.611583 -1.36087,1.671124 -3.88011,2.259612 -2.51923,0.588488 -4.47961,-0.306801 -2.38063,-1.075724 -3.00659,-3.75536 -0.63257,-2.707943 1.03174,-4.698705 1.37691,-1.645022 3.86123,-2.255204 z m 0.4767,1.998088 q -1.63231,0.381305 -2.41611,1.668872 -0.72375,1.203887 -0.37771,2.685236 0.34384,1.471913 1.52603,2.230577 1.27531,0.816514 2.91706,0.433005 1.63231,-0.381306 2.41391,-1.678308 0.72595,-1.194452 0.39093,-2.628623 -0.36367,-1.556832 -1.53925,-2.287189 -1.27814,-0.786004 -2.91486,-0.42357 z m 14.65301,3.530514 2.26831,-5.896083 q 0.20178,-0.507495 0.18692,-0.749272 -0.0297,-0.483555 -0.66965,-0.62866 l -0.0166,-0.270791 4.18758,-0.257438 0.0166,0.270791 q -0.37912,0.149506 -0.5419,0.343959 -0.16278,0.194452 -0.3985,0.781694 l -3.30057,8.211717 q -0.17693,0.438014 -0.16326,0.660449 0.0297,0.483555 0.67575,0.570039 l 0.0161,0.26112 -4.24562,0.261005 -0.016,-0.26112 q 0.62089,-0.16437 0.59117,-0.647925 -0.0137,-0.222435 -0.24293,-0.635478 l -4.28157,-7.745593 q -0.30646,-0.563619 -0.49125,-0.726997 -0.1757,-0.173644 -0.57994,-0.274991 l -0.0166,-0.270791 4.34232,-0.266951 0.0166,0.270791 q -0.60706,0.231473 -0.57793,0.705357 0.0131,0.212764 0.28696,0.720139 z m 14.60823,1.18926 -4.96419,-0.507131 -0.67921,1.118867 q -0.24575,0.403445 -0.27036,0.644425 -0.0473,0.462681 0.55684,0.651012 l -0.0276,0.269897 -3.97134,-0.405705 0.0276,-0.269897 q 0.3722,-0.02042 0.56244,-0.166557 0.19989,-0.145156 0.4901,-0.602498 l 4.75778,-7.578496 q 0.26798,-0.430393 0.30245,-0.767764 0.0404,-0.395207 -0.47677,-0.672053 l 0.0276,-0.269897 4.19305,0.428354 -0.0276,0.269897 q -0.55182,0.157902 -0.59711,0.601305 -0.0325,0.318093 0.16121,0.805392 l 3.29629,8.157789 q 0.27238,0.670652 0.44547,0.88313 0.17407,0.202839 0.5614,0.320326 l -0.0266,0.260258 -4.4051,-0.450017 0.0266,-0.260259 q 0.63738,-0.04202 0.68662,-0.523983 0.0305,-0.298815 -0.16516,-0.766835 z m -0.62618,-1.593115 -1.41045,-3.640672 -2.03074,3.289127 z m 13.97019,-1.949912 -2.04129,7.628433 q -0.0776,0.290161 0.0108,0.484347 0.091,0.184826 0.40038,0.377953 l -0.0676,0.252722 -3.70658,-0.99184 0.0701,-0.262081 q 0.35015,0.0034 0.52377,-0.120634 0.18298,-0.121551 0.26062,-0.411712 l 2.04129,-7.628433 -3.08882,-0.826533 q -0.29952,-0.08015 -0.49621,0.01767 -0.18482,0.09097 -0.36859,0.402881 l -0.25272,-0.06762 0.83154,-3.107534 0.26208,0.07013 q -0.003,0.350144 0.10877,0.530619 0.12406,0.173619 0.42358,0.253768 l 8.68612,2.324311 q 0.29952,0.08015 0.48434,-0.01082 0.19419,-0.08846 0.37796,-0.400377 l 0.25272,0.06763 -0.83155,3.107533 -0.25272,-0.06762 q -0.003,-0.362008 -0.12749,-0.535628 -0.11219,-0.180475 -0.41171,-0.260624 z m 9.38114,2.205673 -3.23726,8.264001 q -0.10956,0.279677 -0.0433,0.482526 0.0698,0.193827 0.35567,0.420296 l -0.0954,0.24359 -3.57264,-1.399517 0.099,-0.252612 q 0.34757,0.0425 0.53396,-0.06139 0.19541,-0.100359 0.30497,-0.380036 l 3.23726,-8.264001 q 0.10956,-0.279677 0.0398,-0.473504 -0.0698,-0.193827 -0.35567,-0.420296 l 0.099,-0.252611 3.57264,1.399517 -0.099,0.252611 q -0.36013,-0.03701 -0.54652,0.06688 -0.18285,0.09487 -0.29241,0.374548 z m 4.96746,5.175361 -2.99726,5.384418 q -0.14609,0.262448 -0.10768,0.472349 0.0469,0.214613 0.29606,0.464218 l -0.12724,0.228583 -3.14938,-1.753115 0.13196,-0.23705 q 0.33872,0.08875 0.53736,0.0108 0.20711,-0.07323 0.3532,-0.335681 l 4.31681,-7.754917 q 0.1461,-0.262448 0.10297,-0.463882 -0.0431,-0.201435 -0.29606,-0.464218 l 0.13196,-0.23705 3.64041,2.026451 -0.13196,0.23705 q -0.42434,-0.114231 -0.5563,0.122819 -0.1131,0.203186 0.007,0.624905 l 2.27089,7.873382 2.90772,-5.223563 q 0.14609,-0.262448 0.10297,-0.463882 -0.0384,-0.209901 -0.29606,-0.464218 l 0.13196,-0.23705 3.14937,1.753116 -0.13195,0.23705 q -0.35191,-0.085 -0.55055,-0.007 -0.19393,0.06948 -0.34002,0.331927 l -4.31681,7.754917 q -0.14609,0.262448 -0.10768,0.472349 0.0431,0.201434 0.29606,0.464218 l -0.12725,0.228583 -3.39489,-1.889783 0.12724,-0.228584 q 0.41492,0.131163 0.54688,-0.105887 0.066,-0.118525 0.0351,-0.302068 -0.0309,-0.183543 -0.18758,-0.758695 z m 16.94901,15.274948 -1.8924,-1.588596 q -0.23747,-0.199354 -0.45085,-0.201364 -0.20595,0.0042 -0.50444,0.209082 l -0.20037,-0.168204 1.84402,-2.196657 0.20037,0.168204 q -0.14383,0.322038 -0.11231,0.52561 0.0389,0.209803 0.27642,0.409156 l 3.95547,3.320478 -0.18067,0.215213 q -0.32203,-0.143831 -0.55172,-0.09628 -0.22226,0.05378 -0.4403,0.313525 l -1.47023,1.751389 q -0.19313,0.230055 -0.19514,0.443432 0.005,0.219606 0.20286,0.51186 l -0.14329,0.170686 q -3.51958,-0.690067 -5.90919,-2.696059 -2.06308,-1.731882 -2.52341,-3.775575 -0.24162,-1.113693 -0.004,-2.255432 0.28774,-1.352459 1.1786,-2.413682 1.2335,-1.469386 3.09826,-1.852207 2.89271,-0.582572 5.65338,1.73491 1.20964,1.015455 2.31211,2.851804 0.44153,0.724864 0.54542,0.812081 0.12616,0.105906 0.39652,0.130453 l 0.0971,0.24599 -2.74381,1.2642 -0.10335,-0.238569 q 0.0249,-0.02968 0.0374,-0.04453 0.2305,-0.274582 -0.0757,-1.025011 -0.56192,-1.395224 -1.72704,-2.373301 -1.34323,-1.127592 -2.82083,-1.115555 -1.55328,0.01176 -2.64972,1.317885 -1.02791,1.224489 -0.82092,2.650688 0.2168,1.459731 1.74556,2.743068 1.45454,1.221039 2.91117,1.520317 z"
       id="text23"
       style="font-size:19.8438px;font-family:'Copperplate Gothic Bold';-inkscape-font-specification:'Copperplate Gothic Bold, @wght=900';font-variant-caps:small-caps;font-variation-settings:'wght' 900;text-align:center;letter-spacing:0.0396875px;text-anchor:middle;white-space:pre;fill:#00112b;stroke-width:40;stroke-linecap:round;paint-order:stroke fill markers"
       aria-label="Innovating" />
    <path
       id="circle24"
       style="font-variation-settings:'wght' 900;fill:none;stroke-width:5.29166;stroke-linecap:round;paint-order:stroke fill markers"
       transform="rotate(90)"
       d="m 181.91072,-148.49998 a 76.454933,76.466034 0 0 1 -76.45493,76.466029 76.454933,76.466034 0 0 1 -76.454936,-76.466029 76.454933,76.466034 0 0 1 76.454936,-76.46604 76.454933,76.466034 0 0 1 76.45493,76.46604 z" />
    <text
       xml:space="preserve"
       transform="scale(0.26458333)"
       id="text2"
       style="fill:#00112b;text-orientation:auto;font-size:75px;-inkscape-font-specification:'Copperplate Gothic Bold, @wght=900';font-family:'Copperplate Gothic Bold';stroke-width:40;stroke-linecap:round;text-align:center;paint-order:stroke fill markers;font-variation-settings:'wght' 900;font-variant-caps:small-caps;letter-spacing:0.15px;writing-mode:lr-tb;direction:ltr;white-space:pre;shape-inside:url(#rect2)" />
  </g>
</svg>
