<?xml version="1.0" encoding="UTF-8" standalone="no"?>
<!-- Created with Inkscape (http://www.inkscape.org/) -->

<svg
   width="210mm"
   height="297mm"
   viewBox="0 0 210 297"
   version="1.1"
   id="svg1"
   xml:space="preserve"
   inkscape:version="1.4.2 (f4327f4, 2025-05-13)"
   sodipodi:docname="tech.svg"
   xmlns:inkscape="http://www.inkscape.org/namespaces/inkscape"
   xmlns:sodipodi="http://sodipodi.sourceforge.net/DTD/sodipodi-0.dtd"
   xmlns:xlink="http://www.w3.org/1999/xlink"
   xmlns="http://www.w3.org/2000/svg"
   xmlns:svg="http://www.w3.org/2000/svg"><sodipodi:namedview
     id="namedview1"
     pagecolor="#ffffff"
     bordercolor="#000000"
     borderopacity="0.25"
     inkscape:showpageshadow="2"
     inkscape:pageopacity="0.0"
     inkscape:pagecheckerboard="0"
     inkscape:deskcolor="#ffffff"
     inkscape:document-units="px"
     showborder="false"
     inkscape:zoom="0.67657738"
     inkscape:cx="447.84234"
     inkscape:cy="668.80746"
     inkscape:window-width="1920"
     inkscape:window-height="974"
     inkscape:window-x="-11"
     inkscape:window-y="-11"
     inkscape:window-maximized="1"
     inkscape:current-layer="layer2" /><defs
     id="defs1"><linearGradient
       id="linearGradient22"
       inkscape:collect="always"><stop
         style="stop-color:#01d9fb;stop-opacity:1"
         offset="0"
         id="stop22" /><stop
         style="stop-color:#042c93;stop-opacity:1"
         offset="1"
         id="stop23" /></linearGradient><linearGradient
       id="linearGradient20"
       inkscape:collect="always"><stop
         style="stop-color:#01e7ff;stop-opacity:1"
         offset="0"
         id="stop20" /><stop
         style="stop-color:#0553e2;stop-opacity:1"
         offset="1"
         id="stop21" /></linearGradient><linearGradient
       id="linearGradient19"
       inkscape:collect="always"><stop
         style="stop-color:#032187;stop-opacity:1"
         offset="0"
         id="stop18" /><stop
         style="stop-color:#052ea0;stop-opacity:1"
         offset="1"
         id="stop19" /></linearGradient><linearGradient
       id="linearGradient14"
       inkscape:collect="always"><stop
         style="stop-color:#0578d9;stop-opacity:1"
         offset="0"
         id="stop14" /><stop
         style="stop-color:#02a5ed;stop-opacity:1"
         offset="1"
         id="stop15" /></linearGradient><linearGradient
       id="linearGradient12"
       inkscape:collect="always"><stop
         style="stop-color:#010e21;stop-opacity:1"
         offset="0"
         id="stop12" /><stop
         style="stop-color:#063ab9;stop-opacity:1"
         offset="1"
         id="stop13" /></linearGradient><linearGradient
       id="linearGradient9"
       inkscape:collect="always"><stop
         style="stop-color:#000e36;stop-opacity:1"
         offset="0"
         id="stop9" /><stop
         style="stop-color:#0a63cf;stop-opacity:1"
         offset="1"
         id="stop10" /></linearGradient><linearGradient
       inkscape:collect="always"
       xlink:href="#linearGradient9"
       id="linearGradient10"
       x1="-31.247011"
       y1="155.40547"
       x2="-62.494019"
       y2="134.3898"
       gradientUnits="userSpaceOnUse"
       gradientTransform="translate(144.83334,23.32386)" /><linearGradient
       inkscape:collect="always"
       xlink:href="#linearGradient12"
       id="linearGradient13"
       x1="-42.414295"
       y1="155.74335"
       x2="-61.940975"
       y2="153.1933"
       gradientUnits="userSpaceOnUse"
       gradientTransform="translate(144.83334,23.32386)" /><linearGradient
       inkscape:collect="always"
       xlink:href="#linearGradient14"
       id="linearGradient15"
       x1="-14.102633"
       y1="114.75671"
       x2="-14.932201"
       y2="154.02287"
       gradientUnits="userSpaceOnUse"
       gradientTransform="translate(144.83334,23.32386)" /><linearGradient
       inkscape:collect="always"
       xlink:href="#linearGradient19"
       id="linearGradient16"
       x1="-5.253922"
       y1="146.28024"
       x2="-61.387928"
       y2="177.80377"
       gradientUnits="userSpaceOnUse"
       gradientTransform="translate(144.83334,23.32386)" /><linearGradient
       inkscape:collect="always"
       xlink:href="#linearGradient20"
       id="linearGradient21"
       x1="-28.523474"
       y1="115.19958"
       x2="-60.388237"
       y2="151.06688"
       gradientUnits="userSpaceOnUse"
       gradientTransform="translate(144.83334,23.32386)" /><linearGradient
       inkscape:collect="always"
       xlink:href="#linearGradient22"
       id="linearGradient23"
       x1="-41.524376"
       y1="93.580032"
       x2="-64.982719"
       y2="141.57938"
       gradientUnits="userSpaceOnUse"
       gradientTransform="translate(144.83334,23.32386)" /></defs><g
     inkscape:label="Layer 1"
     inkscape:groupmode="layer"
     id="layer1" /><g
     inkscape:groupmode="layer"
     id="layer2"
     inkscape:label="Layer 2"><path
       id="path4"
       style="fill:url(#linearGradient16);fill-opacity:1;stroke:none;stroke-width:0.0529167;stroke-linecap:round;stroke-linejoin:round;paint-order:stroke fill markers"
       d="m 140.54759,169.24715 c -0.61841,0.79087 -1.25071,1.528 -1.89549,2.21692 -14.50226,16.35765 -41.399872,25.35266 -52.29655,19.67839 11.025165,6.27013 22.93727,4.8703 29.02665,2.75693 13.74212,-4.26557 21.81783,-15.56889 25.16539,-24.65224 z" /><path
       id="path2"
       style="fill:#063dbb;fill-opacity:1;stroke:none;stroke-width:0.0529167;stroke-linecap:round;stroke-linejoin:round;paint-order:stroke fill markers"
       d="m 64.258644,167.65693 c -0.864864,6.55042 2.346385,16.85308 14.407388,19.83393 18.390698,3.54623 35.154918,-9.10519 43.428878,-15.80059 -11.16151,6.54585 -28.353871,12.97469 -43.428878,10.80038 -8.25058,-1.19 -13.962252,-9.5933 -14.407388,-14.83372 z"
       sodipodi:nodetypes="cccsc" /><path
       id="path3"
       style="fill:url(#linearGradient15);fill-opacity:1;stroke-width:0.0529167;stroke-linecap:round;stroke-linejoin:round;paint-order:stroke fill markers"
       d="m 130.35105,140.59723 c 16.44726,12.22255 5.76233,21.34965 1.27848,26.68881 -15.04218,14.18722 -38.035691,25.16245 -46.250399,23.27972 10.714836,7.16871 41.351659,-3.23485 55.536649,-21.85087 6.26966,-7.91072 10.0256,-21.25253 -10.56473,-28.11766 z" /><path
       style="display:inline;fill:url(#linearGradient23);fill-opacity:1;stroke:none;stroke-width:0.0529167;stroke-linecap:round;stroke-linejoin:round;paint-order:stroke fill markers"
       d="m 110.50811,172.12949 c -13.340794,3.38058 -21.885783,-6.86625 -22.653825,-12.82959 -0.305198,-4.14849 -0.445577,-9.74422 5.758164,-14.19337 1.313856,-1.60414 4.005254,-1.65694 7.092031,-5.27227 1.73968,-2.03757 2.53024,-4.69642 -0.929784,-7.93615 -5.61963,-3.19097 -9.550596,-7.44093 -9.571686,-14.14286 0.132746,-8.70725 5.39845,-13.22138 12.24872,-16.44107 -3.811262,9.22883 1.48116,11.3537 4.8458,15.49715 3.91445,2.63351 7.4783,5.6176 10.82198,8.82188 5.74503,6.45141 6.04801,8.07685 6.92893,10.2148 2.35254,7.04488 1.10433,9.51585 0.0357,12.21492 -2.5263,5.04112 -5.80259,6.98853 -9.0719,8.96474 -3.61566,1.82541 -8.47156,2.89295 -10.75054,5.1074 -3.19435,3.73552 -1.63747,5.67806 -1.60723,6.51819 2.59179,3.67018 5.14885,3.24352 6.85364,3.47623 z"
       id="path5"
       sodipodi:nodetypes="cccsccccccccccc" /><path
       id="path6"
       style="display:inline;fill:url(#linearGradient21);fill-opacity:1;stroke:none;stroke-width:0.0529167;stroke-linecap:round;stroke-linejoin:round;paint-order:stroke fill markers"
       d="m 99.194043,119.85119 3.383777,2.82877 c 1.91908,2.05872 2.53283,2.73552 3.35896,3.63699 1.6288,2.14023 2.84762,4.23209 3.33365,6.23787 0.21209,2.97161 -0.36625,4.84545 -1.36374,6.13709 -1.91696,2.50178 -3.27823,2.74077 -4.74803,3.45974 -5.181602,1.14011 -7.190596,1.66628 -8.4615,2.04948 -0.423919,0.26212 -0.789064,0.54444 -1.084688,0.90538 -6.203741,4.44915 -6.063503,10.04495 -5.758305,14.19344 0.54353,4.22016 4.982097,10.58539 12.258683,12.74806 -1.278346,-1.37042 -2.463332,-2.52058 -4.454508,-5.57588 -0.947892,-1.87478 -1.240741,-4.07725 -0.707451,-6.69262 0.678795,-1.9587 1.67412,-3.35339 3.561023,-4.77283 1.523746,-1.1264 2.708256,-1.83699 5.303556,-2.72749 3.00099,-0.94408 5.55804,-1.30378 8.05635,-2.52594 1.98142,-0.9077 3.76791,-2.51129 5.27823,-5.1015 1.03438,-1.90257 1.50653,-4.15102 1.66708,-6.59133 -0.0592,-1.92261 -0.3578,-3.82676 -1.28829,-5.68234 -0.8115,-2.20787 -2.47647,-4.03639 -4.49533,-5.70766 -1.84466,-1.27855 -3.69983,-2.54641 -5.80843,-3.56102 -1.97272,-0.93165 -3.65015,-1.65252 -5.15214,-2.24793 z" /><path
       style="display:inline;fill:url(#linearGradient10);fill-opacity:1;stroke:none;stroke-width:0.0529167;stroke-linecap:round;stroke-linejoin:round;paint-order:stroke fill markers"
       d="m 108.90476,176.3858 c -3.8823,-0.60112 -7.09417,-1.37525 -9.500484,-2.35726 -4.12505,-1.48232 -6.139015,-2.6053 -8.071842,-3.71448 -4.39044,-3.12918 -4.768183,-4.15941 -6.286034,-5.78601 -2.144954,-3.05003 -3.331202,-5.89109 -3.714475,-8.60758 -0.155582,-2.70508 -0.446158,-5.37046 0.964335,-8.53615 1.018847,-2.45564 2.120405,-4.66316 2.964437,-7.64325 0.861282,-2.53114 1.269512,-5.19552 1.321495,-7.96469 0.03085,-1.98945 -0.757272,-4.43957 -2.250114,-7.28609 -0.443412,-1.03438 -1.08085,-1.73893 -2.000102,-1.96439 0.519246,1.6673 0.139104,3.03815 0.03572,3.46447 -1.412663,3.31806 -2.012879,3.39062 -3.035869,4.71453 -3.639152,3.29575 -3.76458,3.40718 -4.500229,4.07163 -2.338435,2.02218 -3.52304,3.75591 -4.750244,5.50028 -1.992526,3.15496 -2.596841,5.19039 -3.143017,7.17894 -0.473881,1.91593 -0.960752,3.60455 -1.250064,8.75045 0.112506,2.46917 0.351885,4.76918 0.750038,6.85749 0.681449,2.83614 1.670059,5.409 2.678708,7.96469 0.885317,2.18766 2.365695,4.20529 4.250219,6.10746 4.627437,3.89553 6.661808,3.78811 10.036225,4.32164 2.910969,0.19027 5.982442,0.0595 9.179039,-0.32144 2.779966,-0.26635 5.108514,-0.79602 7.321804,-1.39293 3.093714,-1.00995 6.185784,-2.02181 9.000454,-3.35731 z"
       id="path7"
       sodipodi:nodetypes="ccccccccccccccccccccccc" /><path
       id="path8"
       style="fill:url(#linearGradient13);fill-opacity:1;stroke:none;stroke-width:0.0529167;stroke-linecap:round;stroke-linejoin:round;paint-order:stroke fill markers"
       d="m 65.83949,154.00984 c -0.0548,0.65544 -0.105658,1.38244 -0.151412,2.19625 0.112506,2.46917 0.352189,4.76915 0.750342,6.85746 0.681449,2.83614 1.66974,5.4092 2.678389,7.96489 0.885317,2.18766 2.365863,4.20547 4.250387,6.10764 4.627437,3.89553 6.661663,3.78765 10.03608,4.32118 2.910969,0.19027 5.982687,0.0595 9.179284,-0.32143 2.779966,-0.26635 5.108227,-0.79577 7.321517,-1.39268 3.093713,-1.00995 6.185813,-2.02192 9.000483,-3.35742 -4.45626,1.12134 -9.32335,1.53777 -15.14326,0.32143 -5.011347,-0.93718 -9.388186,-2.67696 -13.359908,-5.04362 -4.57278,-2.86495 -7.627759,-5.99146 -9.6113,-8.54315 -2.441175,-3.23962 -3.661899,-6.00119 -4.950602,-9.11055 z" /></g></svg>
